<svg width="108" height="50" viewBox="0 0 108 50" fill="none" xmlns="http://www.w3.org/2000/svg">
<g clip-path="url(#clip0)">
<rect width="107" height="50" fill="white"/>
<path fill-rule="evenodd" clip-rule="evenodd" d="M29.6549 12.4156L35.7919 17.283C35.9001 17.3732 35.9717 17.4991 35.9932 17.6374C36.0147 17.7756 35.9848 17.9169 35.909 18.0351L31.2243 25.6293C31.1606 25.7336 31.065 25.8152 30.9514 25.8623C30.8377 25.9095 30.7118 25.9197 30.5919 25.8916L28.9327 25.5059V39.4215C28.9327 39.5749 28.871 39.7221 28.7612 39.8306C28.6514 39.939 28.5024 40 28.3471 40H8.6558C8.50049 40 8.35154 39.939 8.24173 39.8306C8.13191 39.7221 8.07021 39.5749 8.07021 39.4215V25.5252L6.41105 25.9108C6.29111 25.939 6.16522 25.9287 6.05154 25.8816C5.93787 25.8345 5.8423 25.7529 5.77862 25.6486L1.09393 18.0544C1.01427 17.9327 0.983707 17.786 1.00828 17.6432C1.03286 17.5003 1.11079 17.3718 1.22666 17.283L7.36361 12.4079C7.40734 12.3729 7.456 12.3443 7.50805 12.3231C8.2615 12.0145 9.01105 11.7484 9.7606 11.5016C9.81223 11.4756 9.8675 11.4574 9.92457 11.4476C10.734 11.1904 11.5291 10.968 12.3099 10.7803C12.3833 10.7464 12.4631 10.728 12.5441 10.7263C18.2285 9.36236 24.2124 9.93029 29.53 12.3385C29.5748 12.3589 29.6168 12.3848 29.6549 12.4156ZM18.0408 19.493L12.3294 11.9721C11.8869 12.0827 11.4432 12.2035 10.9981 12.3346L18.5093 22.2237L25.8213 12.2267C25.3997 12.1007 24.9767 11.9862 24.5525 11.8834L18.9777 19.4853C18.924 19.5586 18.8536 19.6184 18.7723 19.6599C18.6909 19.7014 18.6008 19.7235 18.5093 19.7244C18.4184 19.7244 18.3287 19.7035 18.2474 19.6633C18.1661 19.6232 18.0953 19.5649 18.0408 19.493ZM23.2958 11.5966L18.5093 18.1701L13.5786 11.6906C16.7803 11.0312 20.0818 10.9993 23.2958 11.5966ZM28.4955 24.2022L30.4474 24.6535L34.6558 17.8615L28.9756 13.3606C28.3159 13.0752 27.6522 12.8245 26.9846 12.5892L22.095 19.2792H28.5562C28.7825 19.2792 28.9995 19.3691 29.1595 19.5291C29.3195 19.6891 29.4094 19.9061 29.4094 20.1324C29.4094 20.3588 29.3195 20.5758 29.1595 20.7358C28.9995 20.8958 28.7825 20.9857 28.5562 20.9857H21.7299C21.5036 20.9857 21.2865 20.8958 21.1265 20.7358C21.1078 20.717 21.09 20.6975 21.0732 20.6772L18.9816 23.5389C18.9279 23.6121 18.8575 23.6719 18.7762 23.7135C18.6948 23.755 18.6047 23.7771 18.5132 23.778C18.4223 23.778 18.3326 23.7571 18.2513 23.7169C18.17 23.6767 18.0992 23.6184 18.0447 23.5466L9.81916 12.7126C9.22577 12.917 8.62847 13.1292 8.03117 13.3721L2.3627 17.8615L6.58673 24.6766L8.53868 24.2254C8.62358 24.2058 8.71183 24.2053 8.79698 24.2237C8.88214 24.2422 8.96205 24.2792 9.03088 24.332C9.09971 24.3849 9.15573 24.4523 9.19485 24.5292C9.23397 24.6062 9.25521 24.6908 9.257 24.7769V38.8429H27.7771V24.7654C27.7772 24.6783 27.7972 24.5923 27.8355 24.5139C27.8739 24.4355 27.9297 24.3667 27.9987 24.3125C28.0678 24.2584 28.1483 24.2204 28.2343 24.2013C28.3203 24.1822 28.4096 24.1825 28.4955 24.2022Z" fill="#1B4FF1"/>
<path d="M51.1042 17.036C51.1042 17.444 51.0442 17.834 50.9242 18.206C50.8162 18.566 50.6602 18.902 50.4562 19.214C50.2522 19.514 50.0062 19.784 49.7182 20.024C49.4302 20.252 49.1182 20.438 48.7822 20.582L53.0122 26H49.8262L45.8842 20.852H44.6602V26H41.9242V13.238H47.4322C47.9362 13.238 48.4102 13.34 48.8542 13.544C49.3102 13.736 49.7002 14.006 50.0242 14.354C50.3602 14.69 50.6242 15.092 50.8162 15.56C51.0082 16.016 51.1042 16.508 51.1042 17.036ZM47.0902 18.368C47.4382 18.368 47.7382 18.242 47.9902 17.99C48.2422 17.726 48.3682 17.408 48.3682 17.036C48.3682 16.676 48.2422 16.37 47.9902 16.118C47.7382 15.854 47.4382 15.722 47.0902 15.722H44.6602V18.368H47.0902ZM60.8516 13.058C61.7156 13.058 62.5316 13.232 63.2996 13.58C64.0676 13.928 64.7336 14.402 65.2976 15.002C65.8736 15.602 66.3236 16.298 66.6476 17.09C66.9836 17.882 67.1516 18.728 67.1516 19.628C67.1516 20.516 66.9836 21.362 66.6476 22.166C66.3236 22.97 65.8736 23.672 65.2976 24.272C64.7336 24.872 64.0676 25.352 63.2996 25.712C62.5316 26.06 61.7156 26.234 60.8516 26.234C59.9876 26.234 59.1716 26.06 58.4036 25.712C57.6356 25.352 56.9696 24.872 56.4056 24.272C55.8416 23.672 55.3916 22.97 55.0556 22.166C54.7316 21.362 54.5696 20.516 54.5696 19.628C54.5696 18.728 54.7316 17.882 55.0556 17.09C55.3916 16.298 55.8416 15.602 56.4056 15.002C56.9696 14.402 57.6356 13.928 58.4036 13.58C59.1716 13.232 59.9876 13.058 60.8516 13.058ZM60.8516 23.516C61.3436 23.516 61.8056 23.414 62.2376 23.21C62.6696 23.006 63.0476 22.73 63.3716 22.382C63.6956 22.022 63.9476 21.608 64.1276 21.14C64.3196 20.672 64.4156 20.168 64.4156 19.628C64.4156 19.088 64.3196 18.584 64.1276 18.116C63.9476 17.636 63.6956 17.222 63.3716 16.874C63.0476 16.514 62.6696 16.232 62.2376 16.028C61.8056 15.824 61.3436 15.722 60.8516 15.722C60.3596 15.722 59.8976 15.824 59.4656 16.028C59.0336 16.232 58.6556 16.514 58.3316 16.874C58.0076 17.222 57.7496 17.636 57.5576 18.116C57.3776 18.584 57.2876 19.088 57.2876 19.628C57.2876 20.168 57.3776 20.672 57.5576 21.14C57.7496 21.608 58.0076 22.022 58.3316 22.382C58.6556 22.73 59.0336 23.006 59.4656 23.21C59.8976 23.414 60.3596 23.516 60.8516 23.516ZM77.8553 13.238H80.5733V26H77.9813L71.8433 17.666V26H69.1253V13.238H71.6813L77.8553 21.626V13.238ZM90.6617 13.238L95.9897 26H93.0377L91.8857 23.264H86.4677L85.3337 26H82.3637L87.6917 13.238H90.6617ZM90.8597 20.78L89.1857 16.766L87.5117 20.78H90.8597ZM42.2066 33.43C42.7106 33.73 43.0946 34.114 43.3586 34.582C43.6226 35.05 43.7546 35.59 43.7546 36.202C43.7546 36.778 43.6166 37.318 43.3406 37.822C43.0646 38.314 42.6746 38.752 42.1706 39.136C41.7146 39.484 41.1926 39.754 40.6046 39.946C40.0286 40.126 39.4166 40.222 38.7686 40.234C38.1206 40.234 37.5026 40.144 36.9146 39.964C36.3266 39.784 35.8046 39.514 35.3486 39.154C34.6646 38.638 34.1966 38.014 33.9446 37.282L36.4646 36.112C36.4646 36.232 36.5066 36.382 36.5906 36.562C36.6746 36.742 36.8066 36.916 36.9866 37.084C37.1666 37.252 37.4006 37.396 37.6886 37.516C37.9766 37.636 38.3306 37.696 38.7506 37.696C39.0866 37.696 39.3806 37.654 39.6326 37.57C39.8966 37.486 40.1126 37.384 40.2806 37.264C40.4606 37.132 40.5926 36.988 40.6766 36.832C40.7726 36.664 40.8206 36.496 40.8206 36.328C40.8206 36.136 40.7546 35.956 40.6226 35.788C40.5026 35.62 40.3106 35.488 40.0466 35.392C39.5666 35.224 39.0566 35.086 38.5166 34.978C37.9886 34.858 37.4726 34.714 36.9686 34.546C36.4646 34.366 35.9966 34.132 35.5646 33.844C35.1326 33.556 34.7906 33.154 34.5386 32.638C34.3106 32.182 34.1966 31.696 34.1966 31.18C34.1966 30.604 34.3286 30.046 34.5926 29.506C34.8686 28.966 35.2406 28.51 35.7086 28.138C36.1526 27.79 36.6506 27.526 37.2026 27.346C37.7546 27.154 38.3366 27.058 38.9486 27.058C39.5606 27.058 40.1426 27.148 40.6946 27.328C41.2586 27.508 41.7626 27.772 42.2066 28.12C42.6386 28.444 42.9806 28.822 43.2326 29.254L41.1806 30.658C40.9286 30.31 40.6106 30.034 40.2266 29.83C39.8546 29.614 39.4346 29.506 38.9666 29.506C38.3186 29.506 37.8146 29.65 37.4546 29.938C37.1066 30.226 36.9326 30.604 36.9326 31.072C36.9326 31.288 37.0286 31.48 37.2206 31.648C37.4246 31.816 37.6826 31.966 37.9946 32.098C38.3186 32.23 38.6786 32.35 39.0746 32.458C39.4706 32.554 39.8606 32.656 40.2446 32.764C40.6406 32.86 41.0126 32.962 41.3606 33.07C41.7086 33.178 41.9906 33.298 42.2066 33.43ZM51.5524 37.516C52.1284 37.516 52.6924 37.384 53.2444 37.12C53.7964 36.856 54.3544 36.412 54.9184 35.788L56.6824 37.462C55.9744 38.374 55.1644 39.064 54.2524 39.532C53.3524 40 52.4224 40.234 51.4624 40.234C50.5984 40.234 49.7884 40.06 49.0324 39.712C48.2764 39.352 47.6164 38.872 47.0524 38.272C46.5004 37.672 46.0624 36.976 45.7384 36.184C45.4264 35.38 45.2704 34.528 45.2704 33.628C45.2704 32.728 45.4324 31.882 45.7564 31.09C46.0924 30.298 46.5424 29.602 47.1064 29.002C47.6704 28.402 48.3364 27.928 49.1044 27.58C49.8724 27.232 50.6884 27.058 51.5524 27.058C52.3564 27.058 53.1184 27.208 53.8384 27.508C54.5704 27.808 55.2844 28.306 55.9804 29.002L54.3964 30.928C53.8924 30.46 53.4124 30.148 52.9564 29.992C52.5124 29.824 52.0444 29.74 51.5524 29.74C51.0604 29.74 50.5924 29.842 50.1484 30.046C49.7164 30.25 49.3384 30.526 49.0144 30.874C48.6904 31.222 48.4324 31.636 48.2404 32.116C48.0604 32.584 47.9704 33.088 47.9704 33.628C47.9704 34.168 48.0604 34.672 48.2404 35.14C48.4324 35.608 48.6904 36.022 49.0144 36.382C49.3384 36.73 49.7164 37.006 50.1484 37.21C50.5924 37.414 51.0604 37.516 51.5524 37.516ZM67.596 31.036C67.596 31.444 67.536 31.834 67.416 32.206C67.308 32.566 67.152 32.902 66.948 33.214C66.744 33.514 66.498 33.784 66.21 34.024C65.922 34.252 65.61 34.438 65.274 34.582L69.504 40H66.318L62.376 34.852H61.152V40H58.416V27.238H63.924C64.428 27.238 64.902 27.34 65.346 27.544C65.802 27.736 66.192 28.006 66.516 28.354C66.852 28.69 67.116 29.092 67.308 29.56C67.5 30.016 67.596 30.508 67.596 31.036ZM63.582 32.368C63.93 32.368 64.23 32.242 64.482 31.99C64.734 31.726 64.86 31.408 64.86 31.036C64.86 30.676 64.734 30.37 64.482 30.118C64.23 29.854 63.93 29.722 63.582 29.722H61.152V32.368H63.582ZM78.3514 27.238H81.0694V35.392C81.0694 36.028 80.9374 36.64 80.6734 37.228C80.4094 37.816 80.0494 38.332 79.5934 38.776C79.1374 39.22 78.6034 39.574 77.9914 39.838C77.3914 40.102 76.7434 40.234 76.0474 40.234C75.3634 40.234 74.7154 40.102 74.1034 39.838C73.4914 39.574 72.9574 39.22 72.5014 38.776C72.0574 38.332 71.7034 37.816 71.4394 37.228C71.1754 36.64 71.0434 36.028 71.0434 35.392V27.238H73.7614V34.852C73.7614 35.212 73.8214 35.554 73.9414 35.878C74.0614 36.19 74.2234 36.472 74.4274 36.724C74.6314 36.964 74.8714 37.156 75.1474 37.3C75.4354 37.444 75.7354 37.516 76.0474 37.516C76.3714 37.516 76.6714 37.444 76.9474 37.3C77.2234 37.156 77.4634 36.964 77.6674 36.724C77.8834 36.472 78.0514 36.19 78.1714 35.878C78.2914 35.554 78.3514 35.212 78.3514 34.852V27.238ZM90.9991 33.052C91.5031 33.4 91.9051 33.85 92.2051 34.402C92.5051 34.942 92.6551 35.542 92.6551 36.202C92.6551 36.73 92.5531 37.228 92.3491 37.696C92.1451 38.152 91.8691 38.554 91.5211 38.902C91.1731 39.238 90.7651 39.508 90.2971 39.712C89.8411 39.904 89.3491 40 88.8211 40H83.0251V27.238H88.6411C89.1211 27.238 89.5711 27.334 89.9911 27.526C90.4111 27.706 90.7771 27.952 91.0891 28.264C91.4131 28.576 91.6651 28.942 91.8451 29.362C92.0251 29.782 92.1151 30.232 92.1151 30.712C92.1151 31.228 92.0131 31.684 91.8091 32.08C91.6171 32.464 91.3471 32.788 90.9991 33.052ZM85.7611 32.026H88.6411C88.9651 32.026 89.2411 31.912 89.4691 31.684C89.6971 31.456 89.8111 31.18 89.8111 30.856C89.8111 30.532 89.6971 30.262 89.4691 30.046C89.2411 29.83 88.9651 29.722 88.6411 29.722H85.7611V32.026ZM88.8211 37.534C89.1811 37.534 89.4871 37.384 89.7391 37.084C89.9911 36.772 90.1171 36.412 90.1171 36.004C90.1171 35.584 89.9911 35.23 89.7391 34.942C89.4871 34.654 89.1811 34.51 88.8211 34.51H85.7611V37.534H88.8211ZM102.63 33.43C103.134 33.73 103.518 34.114 103.782 34.582C104.046 35.05 104.178 35.59 104.178 36.202C104.178 36.778 104.04 37.318 103.764 37.822C103.488 38.314 103.098 38.752 102.594 39.136C102.138 39.484 101.616 39.754 101.028 39.946C100.452 40.126 99.8396 40.222 99.1916 40.234C98.5436 40.234 97.9256 40.144 97.3376 39.964C96.7496 39.784 96.2276 39.514 95.7716 39.154C95.0876 38.638 94.6196 38.014 94.3676 37.282L96.8876 36.112C96.8876 36.232 96.9296 36.382 97.0136 36.562C97.0976 36.742 97.2296 36.916 97.4096 37.084C97.5896 37.252 97.8236 37.396 98.1116 37.516C98.3996 37.636 98.7536 37.696 99.1736 37.696C99.5096 37.696 99.8036 37.654 100.056 37.57C100.32 37.486 100.536 37.384 100.704 37.264C100.884 37.132 101.016 36.988 101.1 36.832C101.196 36.664 101.244 36.496 101.244 36.328C101.244 36.136 101.178 35.956 101.046 35.788C100.926 35.62 100.734 35.488 100.47 35.392C99.9896 35.224 99.4796 35.086 98.9396 34.978C98.4116 34.858 97.8956 34.714 97.3916 34.546C96.8876 34.366 96.4196 34.132 95.9876 33.844C95.5556 33.556 95.2136 33.154 94.9616 32.638C94.7336 32.182 94.6196 31.696 94.6196 31.18C94.6196 30.604 94.7516 30.046 95.0156 29.506C95.2916 28.966 95.6636 28.51 96.1316 28.138C96.5756 27.79 97.0736 27.526 97.6256 27.346C98.1776 27.154 98.7596 27.058 99.3716 27.058C99.9836 27.058 100.566 27.148 101.118 27.328C101.682 27.508 102.186 27.772 102.63 28.12C103.062 28.444 103.404 28.822 103.656 29.254L101.604 30.658C101.352 30.31 101.034 30.034 100.65 29.83C100.278 29.614 99.8576 29.506 99.3896 29.506C98.7416 29.506 98.2376 29.65 97.8776 29.938C97.5296 30.226 97.3556 30.604 97.3556 31.072C97.3556 31.288 97.4516 31.48 97.6436 31.648C97.8476 31.816 98.1056 31.966 98.4176 32.098C98.7416 32.23 99.1016 32.35 99.4976 32.458C99.8936 32.554 100.284 32.656 100.668 32.764C101.064 32.86 101.436 32.962 101.784 33.07C102.132 33.178 102.414 33.298 102.63 33.43Z" fill="#1B4FF1"/>
</g>
<defs>
<clipPath id="clip0">
<rect width="107.1" height="50" fill="white"/>
</clipPath>
</defs>
</svg>
