<svg width="113" height="50" viewBox="0 0 113 50" fill="none" xmlns="http://www.w3.org/2000/svg">
<rect width="113" height="50" fill="#F6EEE1"/>
<rect width="112" height="50" fill="#F6EEE1"/>
<path d="M12.702 22.028C12.702 22.3453 12.6553 22.6487 12.562 22.938C12.478 23.218 12.3567 23.4793 12.198 23.722C12.0393 23.9553 11.848 24.1653 11.624 24.352C11.4 24.5293 11.1573 24.674 10.896 24.786L14.186 29H11.708L8.64198 24.996H7.68998V29H5.56198V19.074H9.84598C10.238 19.074 10.6067 19.1533 10.952 19.312C11.3067 19.4613 11.61 19.6713 11.862 19.942C12.1233 20.2033 12.3287 20.516 12.478 20.88C12.6273 21.2347 12.702 21.6173 12.702 22.028ZM9.57998 23.064C9.85065 23.064 10.084 22.966 10.28 22.77C10.476 22.5647 10.574 22.3173 10.574 22.028C10.574 21.748 10.476 21.51 10.28 21.314C10.084 21.1087 9.85065 21.006 9.57998 21.006H7.68998V23.064H9.57998ZM20.2833 18.934C20.9553 18.934 21.59 19.0693 22.1873 19.34C22.7846 19.6107 23.3026 19.9793 23.7413 20.446C24.1893 20.9127 24.5393 21.454 24.7913 22.07C25.0526 22.686 25.1833 23.344 25.1833 24.044C25.1833 24.7347 25.0526 25.3927 24.7913 26.018C24.5393 26.6433 24.1893 27.1893 23.7413 27.656C23.3026 28.1227 22.7846 28.496 22.1873 28.776C21.59 29.0467 20.9553 29.182 20.2833 29.182C19.6113 29.182 18.9766 29.0467 18.3793 28.776C17.782 28.496 17.264 28.1227 16.8253 27.656C16.3866 27.1893 16.0366 26.6433 15.7753 26.018C15.5233 25.3927 15.3973 24.7347 15.3973 24.044C15.3973 23.344 15.5233 22.686 15.7753 22.07C16.0366 21.454 16.3866 20.9127 16.8253 20.446C17.264 19.9793 17.782 19.6107 18.3793 19.34C18.9766 19.0693 19.6113 18.934 20.2833 18.934ZM20.2833 27.068C20.666 27.068 21.0253 26.9887 21.3613 26.83C21.6973 26.6713 21.9913 26.4567 22.2433 26.186C22.4953 25.906 22.6913 25.584 22.8313 25.22C22.9806 24.856 23.0553 24.464 23.0553 24.044C23.0553 23.624 22.9806 23.232 22.8313 22.868C22.6913 22.4947 22.4953 22.1727 22.2433 21.902C21.9913 21.622 21.6973 21.4027 21.3613 21.244C21.0253 21.0853 20.666 21.006 20.2833 21.006C19.9006 21.006 19.5413 21.0853 19.2053 21.244C18.8693 21.4027 18.5753 21.622 18.3233 21.902C18.0713 22.1727 17.8706 22.4947 17.7213 22.868C17.5813 23.232 17.5113 23.624 17.5113 24.044C17.5113 24.464 17.5813 24.856 17.7213 25.22C17.8706 25.584 18.0713 25.906 18.3233 26.186C18.5753 26.4567 18.8693 26.6713 19.2053 26.83C19.5413 26.9887 19.9006 27.068 20.2833 27.068ZM33.5084 19.074H35.6224V29H33.6064L28.8324 22.518V29H26.7184V19.074H28.7064L33.5084 25.598V19.074ZM43.469 19.074L47.613 29H45.317L44.421 26.872H40.207L39.325 29H37.015L41.159 19.074H43.469ZM43.623 24.94L42.321 21.818L41.019 24.94H43.623ZM59.4454 23.89C59.8374 24.1233 60.136 24.422 60.3414 24.786C60.5467 25.15 60.6494 25.57 60.6494 26.046C60.6494 26.494 60.542 26.914 60.3274 27.306C60.1127 27.6887 59.8094 28.0293 59.4174 28.328C59.0627 28.5987 58.6567 28.8087 58.1994 28.958C57.7514 29.098 57.2754 29.1727 56.7714 29.182C56.2674 29.182 55.7867 29.112 55.3294 28.972C54.872 28.832 54.466 28.622 54.1114 28.342C53.5794 27.9407 53.2154 27.4553 53.0194 26.886L54.9794 25.976C54.9794 26.0693 55.012 26.186 55.0774 26.326C55.1427 26.466 55.2454 26.6013 55.3854 26.732C55.5254 26.8627 55.7074 26.9747 55.9314 27.068C56.1554 27.1613 56.4307 27.208 56.7574 27.208C57.0187 27.208 57.2474 27.1753 57.4434 27.11C57.6487 27.0447 57.8167 26.9653 57.9474 26.872C58.0874 26.7693 58.19 26.6573 58.2554 26.536C58.33 26.4053 58.3674 26.2747 58.3674 26.144C58.3674 25.9947 58.316 25.8547 58.2134 25.724C58.12 25.5933 57.9707 25.4907 57.7654 25.416C57.392 25.2853 56.9954 25.178 56.5754 25.094C56.1647 25.0007 55.7634 24.8887 55.3714 24.758C54.9794 24.618 54.6154 24.436 54.2794 24.212C53.9434 23.988 53.6774 23.6753 53.4814 23.274C53.304 22.9193 53.2154 22.5413 53.2154 22.14C53.2154 21.692 53.318 21.258 53.5234 20.838C53.738 20.418 54.0274 20.0633 54.3914 19.774C54.7367 19.5033 55.124 19.298 55.5534 19.158C55.9827 19.0087 56.4354 18.934 56.9114 18.934C57.3874 18.934 57.84 19.004 58.2694 19.144C58.708 19.284 59.1 19.4893 59.4454 19.76C59.7814 20.012 60.0474 20.306 60.2434 20.642L58.6474 21.734C58.4514 21.4633 58.204 21.2487 57.9054 21.09C57.616 20.922 57.2894 20.838 56.9254 20.838C56.4214 20.838 56.0294 20.95 55.7494 21.174C55.4787 21.398 55.3434 21.692 55.3434 22.056C55.3434 22.224 55.418 22.3733 55.5674 22.504C55.726 22.6347 55.9267 22.7513 56.1694 22.854C56.4214 22.9567 56.7014 23.05 57.0094 23.134C57.3174 23.2087 57.6207 23.288 57.9194 23.372C58.2274 23.4467 58.5167 23.526 58.7874 23.61C59.058 23.694 59.2774 23.7873 59.4454 23.89ZM66.7143 27.068C67.1623 27.068 67.601 26.9653 68.0303 26.76C68.4596 26.5547 68.8936 26.2093 69.3323 25.724L70.7043 27.026C70.1536 27.7353 69.5236 28.272 68.8143 28.636C68.1143 29 67.391 29.182 66.6443 29.182C65.9723 29.182 65.3423 29.0467 64.7543 28.776C64.1663 28.496 63.653 28.1227 63.2143 27.656C62.785 27.1893 62.4443 26.648 62.1923 26.032C61.9496 25.4067 61.8283 24.744 61.8283 24.044C61.8283 23.344 61.9543 22.686 62.2063 22.07C62.4676 21.454 62.8176 20.9127 63.2563 20.446C63.695 19.9793 64.213 19.6107 64.8103 19.34C65.4076 19.0693 66.0423 18.934 66.7143 18.934C67.3396 18.934 67.9323 19.0507 68.4923 19.284C69.0616 19.5173 69.617 19.9047 70.1583 20.446L68.9263 21.944C68.5343 21.58 68.161 21.3373 67.8063 21.216C67.461 21.0853 67.097 21.02 66.7143 21.02C66.3316 21.02 65.9676 21.0993 65.6223 21.258C65.2863 21.4167 64.9923 21.6313 64.7403 21.902C64.4883 22.1727 64.2876 22.4947 64.1383 22.868C63.9983 23.232 63.9283 23.624 63.9283 24.044C63.9283 24.464 63.9983 24.856 64.1383 25.22C64.2876 25.584 64.4883 25.906 64.7403 26.186C64.9923 26.4567 65.2863 26.6713 65.6223 26.83C65.9676 26.9887 66.3316 27.068 66.7143 27.068ZM79.1927 22.028C79.1927 22.3453 79.146 22.6487 79.0527 22.938C78.9687 23.218 78.8474 23.4793 78.6887 23.722C78.53 23.9553 78.3387 24.1653 78.1147 24.352C77.8907 24.5293 77.648 24.674 77.3867 24.786L80.6767 29H78.1987L75.1327 24.996H74.1807V29H72.0527V19.074H76.3367C76.7287 19.074 77.0974 19.1533 77.4427 19.312C77.7974 19.4613 78.1007 19.6713 78.3527 19.942C78.614 20.2033 78.8194 20.516 78.9687 20.88C79.118 21.2347 79.1927 21.6173 79.1927 22.028ZM76.0707 23.064C76.3414 23.064 76.5747 22.966 76.7707 22.77C76.9667 22.5647 77.0647 22.3173 77.0647 22.028C77.0647 21.748 76.9667 21.51 76.7707 21.314C76.5747 21.1087 76.3414 21.006 76.0707 21.006H74.1807V23.064H76.0707ZM87.558 19.074H89.672V25.416C89.672 25.9107 89.5694 26.3867 89.364 26.844C89.1587 27.3013 88.8787 27.7027 88.524 28.048C88.1694 28.3933 87.754 28.6687 87.278 28.874C86.8114 29.0793 86.3074 29.182 85.766 29.182C85.234 29.182 84.73 29.0793 84.254 28.874C83.778 28.6687 83.3627 28.3933 83.008 28.048C82.6627 27.7027 82.3874 27.3013 82.182 26.844C81.9767 26.3867 81.874 25.9107 81.874 25.416V19.074H83.988V24.996C83.988 25.276 84.0347 25.542 84.128 25.794C84.2214 26.0367 84.3474 26.256 84.506 26.452C84.6647 26.6387 84.8514 26.788 85.066 26.9C85.29 27.012 85.5234 27.068 85.766 27.068C86.018 27.068 86.2514 27.012 86.466 26.9C86.6807 26.788 86.8674 26.6387 87.026 26.452C87.194 26.256 87.3247 26.0367 87.418 25.794C87.5114 25.542 87.558 25.276 87.558 24.996V19.074ZM97.3951 23.596C97.7871 23.8667 98.0998 24.2167 98.3331 24.646C98.5664 25.066 98.6831 25.5327 98.6831 26.046C98.6831 26.4567 98.6038 26.844 98.4451 27.208C98.2864 27.5627 98.0718 27.8753 97.8011 28.146C97.5304 28.4073 97.2131 28.6173 96.8491 28.776C96.4944 28.9253 96.1118 29 95.7011 29H91.1931V19.074H95.5611C95.9344 19.074 96.2844 19.1487 96.6111 19.298C96.9378 19.438 97.2224 19.6293 97.4651 19.872C97.7171 20.1147 97.9131 20.3993 98.0531 20.726C98.1931 21.0527 98.2631 21.4027 98.2631 21.776C98.2631 22.1773 98.1838 22.532 98.0251 22.84C97.8758 23.1387 97.6658 23.3907 97.3951 23.596ZM93.3211 22.798H95.5611C95.8131 22.798 96.0278 22.7093 96.2051 22.532C96.3824 22.3547 96.4711 22.14 96.4711 21.888C96.4711 21.636 96.3824 21.426 96.2051 21.258C96.0278 21.09 95.8131 21.006 95.5611 21.006H93.3211V22.798ZM95.7011 27.082C95.9811 27.082 96.2191 26.9653 96.4151 26.732C96.6111 26.4893 96.7091 26.2093 96.7091 25.892C96.7091 25.5653 96.6111 25.29 96.4151 25.066C96.2191 24.842 95.9811 24.73 95.7011 24.73H93.3211V27.082H95.7011ZM106.441 23.89C106.833 24.1233 107.132 24.422 107.337 24.786C107.542 25.15 107.645 25.57 107.645 26.046C107.645 26.494 107.538 26.914 107.323 27.306C107.108 27.6887 106.805 28.0293 106.413 28.328C106.058 28.5987 105.652 28.8087 105.195 28.958C104.747 29.098 104.271 29.1727 103.767 29.182C103.263 29.182 102.782 29.112 102.325 28.972C101.868 28.832 101.462 28.622 101.107 28.342C100.575 27.9407 100.211 27.4553 100.015 26.886L101.975 25.976C101.975 26.0693 102.008 26.186 102.073 26.326C102.138 26.466 102.241 26.6013 102.381 26.732C102.521 26.8627 102.703 26.9747 102.927 27.068C103.151 27.1613 103.426 27.208 103.753 27.208C104.014 27.208 104.243 27.1753 104.439 27.11C104.644 27.0447 104.812 26.9653 104.943 26.872C105.083 26.7693 105.186 26.6573 105.251 26.536C105.326 26.4053 105.363 26.2747 105.363 26.144C105.363 25.9947 105.312 25.8547 105.209 25.724C105.116 25.5933 104.966 25.4907 104.761 25.416C104.388 25.2853 103.991 25.178 103.571 25.094C103.16 25.0007 102.759 24.8887 102.367 24.758C101.975 24.618 101.611 24.436 101.275 24.212C100.939 23.988 100.673 23.6753 100.477 23.274C100.3 22.9193 100.211 22.5413 100.211 22.14C100.211 21.692 100.314 21.258 100.519 20.838C100.734 20.418 101.023 20.0633 101.387 19.774C101.732 19.5033 102.12 19.298 102.549 19.158C102.978 19.0087 103.431 18.934 103.907 18.934C104.383 18.934 104.836 19.004 105.265 19.144C105.704 19.284 106.096 19.4893 106.441 19.76C106.777 20.012 107.043 20.306 107.239 20.642L105.643 21.734C105.447 21.4633 105.2 21.2487 104.901 21.09C104.612 20.922 104.285 20.838 103.921 20.838C103.417 20.838 103.025 20.95 102.745 21.174C102.474 21.398 102.339 21.692 102.339 22.056C102.339 22.224 102.414 22.3733 102.563 22.504C102.722 22.6347 102.922 22.7513 103.165 22.854C103.417 22.9567 103.697 23.05 104.005 23.134C104.313 23.2087 104.616 23.288 104.915 23.372C105.223 23.4467 105.512 23.526 105.783 23.61C106.054 23.694 106.273 23.7873 106.441 23.89Z" fill="#1B4FF1"/>
</svg>
