<svg width="566" height="566" viewBox="0 0 566 566" fill="none" xmlns="http://www.w3.org/2000/svg">
<g clip-path="url(#clip0)">
<rect width="566" height="566" fill="white"/>
<path fill-rule="evenodd" clip-rule="evenodd" d="M0 588H566V-21.9999H0V588Z" fill="url(#paint0_radial)"/>
<path fill-rule="evenodd" clip-rule="evenodd" d="M49.8599 507.284H493.225L528.452 537.613H18.2773L49.8599 507.284" fill="#A8A588"/>
<path fill-rule="evenodd" clip-rule="evenodd" d="M443.351 339.869V346.903L443.234 523.092H437.87L436.463 346.903L104.565 347.219L105.97 523.057H100.372L97.678 339.833H104.565V339.869L443.351 339.552V339.869Z" fill="#8A7B8E"/>
<path fill-rule="evenodd" clip-rule="evenodd" d="M159.779 -21.9996H542.136L527.888 290.636H168.145L159.779 -21.9996Z" fill="white"/>
<path fill-rule="evenodd" clip-rule="evenodd" d="M240.36 149.983C240.36 149.983 238.875 140.78 235.141 140.671C231.408 140.562 229.54 145.031 230.861 151.2C232.182 157.37 236.606 159.469 236.747 163.323C236.888 167.177 237.071 169.527 239.283 170.577C241.496 171.627 242.803 169.429 242.803 169.429L240.36 149.983Z" fill="#F6824C"/>
<path fill-rule="evenodd" clip-rule="evenodd" d="M237.145 146.448C238.267 147.144 239.477 149.428 240.777 153.302C239.923 147.671 238.206 144.462 235.625 143.677C232.824 143.447 231.551 145.569 231.809 150.042C232.612 145.469 234.391 144.272 237.145 146.448Z" fill="#F14E2E"/>
<path fill-rule="evenodd" clip-rule="evenodd" d="M238.621 148.191C239.444 149.921 239.856 150.785 239.856 150.785C238.235 152.621 238.013 154.786 239.19 157.284C240.544 159.266 240.913 161.175 240.294 163.01C240.341 161.753 239.984 160.463 239.225 159.14C234.784 154.473 234.583 150.823 238.621 148.191" fill="#F14E2E"/>
<path fill-rule="evenodd" clip-rule="evenodd" d="M308.3 149.966C308.3 149.966 309.785 140.764 313.518 140.655C317.252 140.545 319.12 145.016 317.799 151.185C316.477 157.354 312.053 159.453 311.912 163.307C311.771 167.16 311.588 169.51 309.376 170.56C307.164 171.61 305.857 169.414 305.857 169.414L308.3 149.966Z" fill="#F6824C"/>
<path fill-rule="evenodd" clip-rule="evenodd" d="M311.514 146.432C310.392 147.127 309.182 149.412 307.883 153.286C308.737 147.655 310.454 144.447 313.034 143.661C315.836 143.432 317.108 145.553 316.85 150.025C316.047 145.453 314.268 144.255 311.514 146.432" fill="#F14E2E"/>
<path fill-rule="evenodd" clip-rule="evenodd" d="M310.038 148.175C309.215 149.905 308.804 150.77 308.804 150.77C310.424 152.605 310.647 154.771 309.47 157.268C308.116 159.251 307.747 161.159 308.366 162.995C308.319 161.737 308.676 160.447 309.435 159.124C313.877 154.457 314.078 150.807 310.038 148.175Z" fill="#F14E2E"/>
<path fill-rule="evenodd" clip-rule="evenodd" d="M342.513 21.076L350.947 262.699L217.663 260.487L205.698 17.3293H199.607L211.321 265.508L506.035 266.913L513.063 3.28123L507.441 1.87647L500.648 262.698L357.743 260.357L348.841 20.6058L342.513 21.076" fill="#DFE1D5"/>
<path fill-rule="evenodd" clip-rule="evenodd" d="M357.904 245.871L357.344 254.834L350.805 256.701L344.827 281.16L325.583 280.974L321.287 255.954L316.616 254.834L315.121 246.058L357.904 245.871" fill="#C3C6B4"/>
<path fill-rule="evenodd" clip-rule="evenodd" d="M368.6 250.149C368.6 250.149 361.02 234.092 358.396 234.092C355.772 234.092 344.112 246.257 344.112 246.257L327.785 246.349C327.785 246.349 323.849 239.133 322.392 238.76C320.934 238.386 309.563 248.282 309.563 248.282C309.563 248.282 320.642 234.279 322.537 235.212C324.431 236.146 328.951 242.307 328.951 242.307L323.995 224.196L331.428 241.373C331.428 241.373 331.138 223.262 332.158 219.715C333.178 216.167 338.717 214.674 338.717 214.674C338.717 214.674 334.635 218.221 334.344 220.089C334.052 221.955 333.907 239.507 333.907 239.507C333.907 239.507 337.697 227.184 340.758 225.13C343.819 223.076 350.378 223.076 350.378 223.076C350.378 223.076 343.381 225.877 342.362 227.184C341.341 228.491 337.551 239.693 337.551 239.693C337.551 239.693 345.276 229.984 347.317 228.677C349.359 227.37 353.731 227.557 353.731 227.557L347.901 232.038L343.382 239.507C343.382 239.507 355.919 230.731 357.375 230.544C358.833 230.358 368.6 250.149 368.6 250.149" fill="#B7E060"/>
<path fill-rule="evenodd" clip-rule="evenodd" d="M290.853 104.451L254.402 104.318L251.129 83.3244C249.337 71.8345 258.081 62.1834 266.579 62.1834H279.464C287.962 62.1834 297.11 71.9051 294.915 83.3244L290.853 104.451" fill="#73373D"/>
<path fill-rule="evenodd" clip-rule="evenodd" d="M288.231 101.333L257.155 101.221L254.365 83.323C252.838 73.5288 260.292 65.2998 267.537 65.2998H278.521C285.765 65.2998 293.564 73.5886 291.693 83.323L288.231 101.333" fill="#663136"/>
<path fill-rule="evenodd" clip-rule="evenodd" d="M316.324 396.688C316.324 396.688 315.86 353.607 320.987 341.286C326.114 328.964 330.238 321.132 330.972 304.393C331.704 287.655 331.704 267.197 331.704 267.197C331.704 267.197 331.338 256.968 326.943 255.573C322.549 254.178 263.61 255.573 263.61 255.573V256.372C246.213 256.104 223.943 255.937 221.307 256.774C216.912 258.169 216.546 268.397 216.546 268.397C216.546 268.397 216.546 288.855 217.278 305.594C218.011 322.332 222.136 330.165 227.264 342.486C232.389 354.807 231.926 400.446 231.926 397.887C231.802 397.109 250.858 400.705 269.017 401.269C269.617 401.288 270.213 401.304 270.808 401.316L272.514 479.068L220.856 501.662V507.284H226.479L226.01 503.769L274.095 487.497L282.938 487.263L326.514 502.599L327.919 507.284H331.89L330.147 498.827L283.408 478.483L280.893 401.258H280.891C301.761 400.579 316.324 396.688 316.324 396.688" fill="#3E1C1D"/>
<path fill-rule="evenodd" clip-rule="evenodd" d="M313.874 385.662C313.874 385.662 313.438 345.933 318.263 334.57C323.087 323.207 326.969 315.985 327.658 300.548C328.348 285.112 328.348 266.245 328.348 266.245C328.348 266.245 328.003 256.812 323.867 255.525C319.732 254.239 264.271 255.525 264.271 255.525V256.262C247.901 256.015 226.944 255.861 224.463 256.632C220.328 257.919 219.983 267.353 219.983 267.353C219.983 267.353 219.983 286.219 220.673 301.655C221.362 317.092 225.244 324.314 230.068 335.677C234.893 347.04 234.457 389.128 234.457 386.77C234.34 386.051 252.272 389.367 269.358 389.889C294.775 390.665 313.874 385.662 313.874 385.662" fill="#B81B30"/>
<path fill-rule="evenodd" clip-rule="evenodd" d="M319.493 308.644C314.964 317.28 311.729 324.997 310.921 329.04C310.112 333.083 309.627 348.333 309.627 348.333L313.475 351.648L313.325 356.418L304.492 349.882L269.031 347.048L269.194 276.031L301.338 262.441L327.697 266.064L327.53 278.203C327.53 278.203 321.677 277.682 321.595 280.53C321.327 289.985 323.844 300.347 319.493 308.644" fill="#AA1B2B"/>
<path fill-rule="evenodd" clip-rule="evenodd" d="M228.961 310.722C233.49 319.359 236.725 327.076 237.533 331.119C238.342 335.161 238.827 350.413 238.827 350.413L234.98 353.726L235.129 358.497L243.962 351.962L279.423 349.127L279.261 278.109L247.116 264.52L220.757 268.143L220.841 274.249L220.924 280.283C220.924 280.283 226.778 279.761 226.859 282.609C227.127 292.064 224.61 302.426 228.961 310.722" fill="#AA1B2B"/>
<path fill-rule="evenodd" clip-rule="evenodd" d="M243.968 344.533L235.129 358.497L248.982 348.484C248.982 348.484 299.237 345.686 299.121 347.565C299.005 349.444 313.325 356.418 313.325 356.418L303.165 340.766L243.968 344.533" fill="#981925"/>
<path fill-rule="evenodd" clip-rule="evenodd" d="M235.368 128.12L242.124 164.601L278.764 200.158L275.264 88.545C275.196 86.3791 266.892 86.9394 262.171 88.502C246.777 93.5963 231.597 107.724 235.368 128.12" fill="#61292D"/>
<path fill-rule="evenodd" clip-rule="evenodd" d="M313.79 128.238L307.034 164.718L270.395 200.275H270.394L273.894 88.6629C273.962 86.4963 282.267 87.0572 286.988 88.6192C302.382 93.7135 317.561 107.842 313.79 128.238" fill="#61292D"/>
<path fill-rule="evenodd" clip-rule="evenodd" d="M284.359 90.1742C287.713 91.898 288.862 100.628 287.179 105.225C285.497 109.821 282.201 108.072 282.201 108.072L299.431 118.697C299.431 118.697 298.99 105.441 301.223 104.333C303.456 103.225 307.313 106.24 307.313 106.24C307.313 106.24 297.19 91.2726 284.359 90.1742" fill="#762F35"/>
<path fill-rule="evenodd" clip-rule="evenodd" d="M268.474 191.426C270.342 211.959 271.557 233.217 245.51 229.557C232.744 227.763 231.641 231.535 230.675 239.833C229.631 248.804 229.209 263.95 229.052 274.693L222.874 296.643C222.874 296.643 222.755 303.378 225.622 304.659C233.737 308.291 244.706 297.579 243.597 287.178L277.647 287.178V287.16L315.56 296.918C315.584 296.924 319.387 296.732 320.092 288.722C321.296 275.066 319.535 249.28 318.433 239.815C317.469 231.518 316.365 227.745 303.599 229.539C277.552 233.199 278.767 211.942 280.637 191.408L277.158 188.894L277.14 185.16L274.568 187.02L271.969 185.142L271.951 188.911L268.474 191.426" fill="#F7986E"/>
<path fill-rule="evenodd" clip-rule="evenodd" d="M132.944 260.732C132.944 260.732 133.867 259.072 135.089 258.202C137.023 256.827 142.69 257.252 147.356 255.247C151.169 253.609 168.44 255.715 170.783 255.482C173.126 255.247 203.493 285.685 206.767 285.685C210.041 285.685 224.565 290.636 224.565 290.636L232.749 304.671C232.749 304.671 219.518 313.268 206.611 305.94C193.706 298.61 166.098 262.687 166.098 262.687L132.944 260.732" fill="#F17954"/>
<path fill-rule="evenodd" clip-rule="evenodd" d="M226.827 262.983L241.353 265.792L243.597 287.178L304.607 287.16L304.138 265.089L322.646 261.343C322.646 261.343 319.578 234.755 316.251 231.777C312.923 228.799 308.988 228.883 305.883 229.265C302.78 229.647 294.353 229.705 294.353 229.705C294.353 229.705 292.023 238.088 281.765 241.675C271.508 245.262 261.033 239.451 259.51 238.397C257.986 237.344 255.41 229.621 255.41 229.621C255.41 229.621 243.605 230.056 241.015 229.134C238.425 228.212 232.568 229.382 231.162 233.48C229.756 237.578 226.827 262.983 226.827 262.983" fill="#D3CA91"/>
<path fill-rule="evenodd" clip-rule="evenodd" d="M268.8 195.159C269.278 201.436 269.443 205.896 269.296 208.541C273.973 204.908 277.475 204.801 279.804 208.224C280.008 201.223 280.111 197.723 280.111 197.723C272.57 196.014 268.8 195.159 268.8 195.159" fill="#F17954"/>
<path fill-rule="evenodd" clip-rule="evenodd" d="M260.65 231.325C260.65 231.325 271.674 233.525 273.115 234.842C274.555 236.16 274.288 237.333 275.828 237.48C277.367 237.627 277.587 236.308 278.027 235.355C278.467 234.403 290.271 231.252 290.271 231.252L260.65 231.325" fill="#F17954"/>
<path fill-rule="evenodd" clip-rule="evenodd" d="M281.671 234.47C280.739 234.47 279.666 234.948 279.272 235.537C278.88 236.128 279.316 236.606 280.247 236.606C281.178 236.606 282.252 236.128 282.646 235.537C283.039 234.948 282.603 234.47 281.671 234.47Z" fill="#F9A970"/>
<path fill-rule="evenodd" clip-rule="evenodd" d="M269.323 234.506C270.254 234.506 271.328 234.985 271.72 235.574C272.114 236.164 271.678 236.643 270.746 236.643C269.815 236.643 268.742 236.164 268.349 235.574C267.955 234.985 268.391 234.506 269.323 234.506Z" fill="#F9A970"/>
<path fill-rule="evenodd" clip-rule="evenodd" d="M305.909 133.326C305.909 133.326 308.47 169.527 306.933 175.653C305.397 181.78 283.886 199.601 278.764 200.158C276.151 200.442 273.938 200.291 272.397 200.075C271.63 200.064 270.809 200.017 269.945 199.923C264.824 199.366 243.313 181.544 241.776 175.418C240.24 169.292 242.8 133.091 242.8 133.091C250.995 110.258 274.664 112.145 274.298 104.131L274.36 105.485L274.412 104.366C274.039 112.516 297.715 110.492 305.909 133.326Z" fill="#FAB887"/>
<path fill-rule="evenodd" clip-rule="evenodd" d="M301.016 163.975C298.007 168.571 294.498 169.529 293.54 172.786C292.582 176.042 290.954 189.546 289.612 191.653C288.27 193.759 304.479 179.884 305.519 176.425C306.559 172.966 306.4 158.715 306.4 158.715C305.763 146.311 304.024 159.379 301.016 163.975" fill="#F7997A"/>
<path fill-rule="evenodd" clip-rule="evenodd" d="M278.807 192.699C280.086 192.675 281.13 193.048 281.141 193.535C281.151 194.021 280.122 194.434 278.843 194.459C277.565 194.482 276.519 194.109 276.509 193.623C276.499 193.137 277.528 192.724 278.807 192.699Z" fill="#FCD1B1"/>
<path fill-rule="evenodd" clip-rule="evenodd" d="M274.566 158.951C274.566 158.951 278.105 159.716 279.534 162.015C280.962 164.313 279.347 165.59 279.347 165.59L274.504 166.739C274.504 166.739 268.978 166.611 268.357 164.952C267.736 163.292 268.668 160.1 274.566 158.951" fill="#F47145"/>
<path fill-rule="evenodd" clip-rule="evenodd" d="M274.504 166.739C279.834 166.443 281.37 164.68 279.116 161.448C279.221 162.979 278.531 163.628 277.043 163.391C275.298 164.285 273.721 164.306 272.312 163.454C269.775 163.827 268.734 163.193 269.189 161.55C266.757 164.934 268.529 166.664 274.504 166.739Z" fill="#F26034"/>
<path fill-rule="evenodd" clip-rule="evenodd" d="M278.603 165.271C278.603 165.271 278.354 164.377 277.547 164.441C276.74 164.504 275.808 165.654 275.808 165.654L278.603 165.271Z" fill="#D63023"/>
<path fill-rule="evenodd" clip-rule="evenodd" d="M273.014 165.845C273.014 165.845 271.71 164.441 271.027 164.632C270.344 164.824 269.847 165.59 269.847 165.59L273.014 165.845" fill="#D63023"/>
<path fill-rule="evenodd" clip-rule="evenodd" d="M273.449 160.674C273.449 160.674 275.25 160.674 274.132 161.568C273.014 162.461 271.462 162.717 271.152 162.27C270.841 161.823 273.449 160.674 273.449 160.674Z" fill="#FAB8A3"/>
<path fill-rule="evenodd" clip-rule="evenodd" d="M272.815 159.816C272.815 159.816 273.883 159.816 273.22 160.346C272.557 160.877 271.636 161.028 271.451 160.763C271.267 160.498 272.815 159.816 272.815 159.816Z" fill="#FAB8A3"/>
<path fill-rule="evenodd" clip-rule="evenodd" d="M245.068 136.501C249.492 130.313 263.113 132.203 268.878 132.171C271.287 137.908 268.153 146.423 266.145 149.62C263.521 144.175 259.287 139.215 252.412 141.261C248.093 143.889 244.053 139.609 245.068 136.501" fill="#F17954"/>
<path fill-rule="evenodd" clip-rule="evenodd" d="M264.8 90.0562C261.446 91.7807 260.296 100.511 261.979 105.107C263.662 109.704 266.958 107.955 266.958 107.955L249.728 118.58C249.728 118.58 250.169 105.324 247.936 104.216C245.703 103.109 241.845 106.123 241.845 106.123C241.845 106.123 251.969 91.1559 264.8 90.0562" fill="#762F35"/>
<path fill-rule="evenodd" clip-rule="evenodd" d="M274.339 104.131C274.87 104.131 275.304 101.148 275.304 97.4896C275.304 93.831 274.87 90.8475 274.339 90.8475C273.807 90.8475 273.374 93.831 273.374 97.4896C273.374 101.148 273.807 104.131 274.339 104.131Z" fill="#461F21"/>
<path fill-rule="evenodd" clip-rule="evenodd" d="M269.679 134.941L269.813 130.761C269.813 130.761 262.112 129.731 255.63 129.569C249.148 129.407 245.068 136.501 245.068 136.501C245.068 136.501 250.936 131.941 255.697 132.382C260.46 132.823 269.679 134.941 269.679 134.941Z" fill="#431D1A"/>
<path fill-rule="evenodd" clip-rule="evenodd" d="M247.521 163.432C250.529 168.028 254.036 168.987 254.995 172.243C255.953 175.5 257.582 189.004 258.924 191.11C260.266 193.217 244.056 179.342 243.017 175.883C241.977 172.423 242.136 158.172 242.136 158.172C242.773 145.769 244.512 158.836 247.521 163.432Z" fill="#F7997A"/>
<path fill-rule="evenodd" clip-rule="evenodd" d="M242.759 339.994L243.597 287.177L248.383 287.176L247.445 259.111L241.014 229.134L247.27 229.771L254.357 258.524L292.544 258.757L300.123 229.596L307.224 229.158L299.571 258.524L298.885 287.16L304.604 287.039L305.542 339.994H242.759" fill="#484B55"/>
<path fill-rule="evenodd" clip-rule="evenodd" d="M249.336 340.841L249.316 289.052L250.328 289.047L250.37 340.755L249.336 340.841ZM257.233 340.19L257.213 289.07L258.225 289.064L258.267 340.104L257.233 340.19V340.19ZM253.476 340.498V289.132L254.489 289.094V340.461L253.476 340.498V340.498ZM265.194 339.477L265.173 288.922L266.186 288.915L266.228 339.393L265.194 339.477V339.477ZM261.437 339.784V288.985L262.449 288.946V339.746L261.437 339.784ZM273.092 338.835L273.071 288.933L274.083 288.925L274.125 338.751L273.092 338.835V338.835ZM269.334 339.139V288.995L270.346 288.957V339.101L269.334 339.139V339.139ZM281.024 340.607L281.003 288.818L282.015 288.813L282.057 340.521L281.024 340.607V340.607ZM288.92 339.956L288.9 288.836L289.912 288.83L289.954 339.87L288.92 339.956V339.956ZM285.162 340.264V288.897L286.175 288.86V340.227L285.162 340.264ZM296.881 339.242L296.86 288.688L297.872 288.682L297.915 339.158L296.881 339.242V339.242ZM293.123 339.549V288.75L294.135 288.712V339.512L293.123 339.549ZM301.02 338.904V288.761L302.033 288.724V338.867L301.02 338.904V338.904ZM277.266 340.917V288.878L278.278 288.84V340.88L277.266 340.917V340.917ZM245.579 341.152V289.112L246.592 289.075V341.113L245.579 341.152Z" fill="#8C9479"/>
<path fill-rule="evenodd" clip-rule="evenodd" d="M242.134 396.77L235.98 408.612L311.89 412.283L307.549 391.74L251.451 389.742L242.134 396.77" fill="#383B42"/>
<path fill-rule="evenodd" clip-rule="evenodd" d="M241.675 362.422L235.98 408.613L253.299 391.762L299.73 395.479L307.674 395.508L306.568 362.42L241.675 362.422" fill="#484B55"/>
<path fill-rule="evenodd" clip-rule="evenodd" d="M246.3 389.951L247.334 389.904L252.255 362.531H251.155L246.3 389.951ZM254.197 389.593L255.231 389.546L260.181 362.531H259.037L254.197 389.593V389.593ZM250.44 389.763L255.227 362.531H256.445L251.451 389.743L250.44 389.763V389.763ZM262.157 389.2L263.192 389.154L268.068 362.522L267.055 362.524L262.157 389.2ZM258.4 389.369L263.276 362.531L264.332 362.538L259.412 389.348L258.4 389.369V389.369ZM270.055 388.846L271.088 388.8L275.966 362.528L274.953 362.532L270.055 388.846V388.846ZM266.297 389.014L271.173 362.531H272.281L267.31 388.993L266.297 389.014ZM277.987 389.823L279.021 389.775L283.898 362.528L282.886 362.531L277.987 389.823V389.823ZM285.883 389.464L286.917 389.417L291.795 362.531L290.783 362.534L285.883 389.464ZM282.126 389.634L287.046 362.512L288.058 362.491L283.138 389.614L282.126 389.634ZM293.844 389.071L294.878 389.025L299.755 362.531L298.743 362.534L293.844 389.071ZM290.086 389.24L294.906 362.531H296.018L291.099 389.219L290.086 389.24V389.24ZM297.984 388.885L302.903 362.531H303.915L298.996 388.864L297.984 388.885ZM274.229 389.994L279.148 362.502L280.161 362.481L275.242 389.973L274.229 389.994V389.994ZM242.543 390.123L247.404 362.531H248.489L243.555 390.102L242.543 390.123Z" fill="#8C9479"/>
<path fill-rule="evenodd" clip-rule="evenodd" d="M85.7876 331.768H454.698L484.009 356.94H59.5093L85.7876 331.768Z" fill="#BFC4AD"/>
<path fill-rule="evenodd" clip-rule="evenodd" d="M113.941 344.824L122.726 334.405H262.449L299.261 352.521L300.195 356.94L274.729 357.196C274.729 357.196 239.891 347.09 238.705 347.091C237.518 347.092 113.941 344.824 113.941 344.824" fill="#87936F"/>
<path fill-rule="evenodd" clip-rule="evenodd" d="M482.518 357.537V365.117L480.876 527.513H475.089V365.117H66.938V527.133H60.8994L59.5093 357.157H66.938V357.196H482.518V357.537" fill="#695B6D"/>
<path fill-rule="evenodd" clip-rule="evenodd" d="M247.616 262.396L299.436 262.375L299.403 263.386L247.663 263.428L247.616 262.396ZM247.971 270.287L299.122 270.267L299.09 271.279L248.018 271.321L247.971 270.287V270.287ZM247.803 266.532H299.201V267.544H247.803V266.532ZM248.386 278.243L298.972 278.223L298.94 279.234L248.432 279.277L248.386 278.243ZM248.22 274.488H299.05V275.5H248.22V274.488V274.488ZM248.733 286.135L298.666 286.116L298.634 287.126L248.778 287.169L248.733 286.135V286.135ZM248.569 282.38H298.742V283.392H248.569V282.38V282.38ZM247.446 258.64H299.516V259.652H247.446V258.64Z" fill="#8C9479"/>
<path fill-rule="evenodd" clip-rule="evenodd" d="M159.779 -21.9999L161.536 43.6591L528.005 41.7807L528.993 -21.9999H159.779Z" fill="#B6835F"/>
<path fill-rule="evenodd" clip-rule="evenodd" d="M328.858 492.576L299.26 352.521L268.273 339.683L345.457 334.957C345.457 334.957 378.994 342.195 379.187 347.358C379.381 352.521 382.616 401.489 382.616 401.489L366.276 403.051L370.011 490.492C370.011 490.492 352.559 487.37 351.835 493.095C351.112 498.82 348.046 504.545 342.034 506.628C336.019 508.71 332.291 509.23 332.291 509.23L328.858 492.576" fill="#6085CC"/>
<path fill-rule="evenodd" clip-rule="evenodd" d="M196.349 314.267C196.349 314.267 200.579 323.735 206.43 323.689C212.281 323.643 232.558 323.153 232.558 323.153L230.74 343.993C228.846 365.718 259.999 346.934 280.987 356.94C280.987 356.94 303.718 360.236 308.8 356.94C313.882 353.645 324.497 339.664 324.497 339.664L282.056 338.84L262.449 329.973L248.598 330.87L239.927 316.113L231.143 307.04L196.349 314.267" fill="#6085CC"/>
<path fill-rule="evenodd" clip-rule="evenodd" d="M253.871 509.819C255.806 490.081 258.235 443.275 261.268 400.865C262.16 388.411 250.17 390.562 248.976 395.296C248.976 395.296 249.493 397.995 248.405 399.647C244.765 405.174 240.659 412.585 240.798 417.816C241.044 427.014 249.534 509.554 249.534 509.554C249.534 509.554 249.201 515.862 247.364 519.851C243.521 528.195 249.395 524.595 258.426 525.803C260.973 526.143 281.31 529.671 285.36 526.433C287.319 524.867 253.291 515.732 253.871 509.819" fill="#2E2D2D"/>
<path fill-rule="evenodd" clip-rule="evenodd" d="M284.45 402.267L307.799 498.947C307.799 498.947 305.305 517.635 302.658 521.065C300.01 524.496 293.284 525.278 292.74 525.959C291.128 527.982 308.837 527.964 311.5 524.76C313.427 522.443 314.683 516.634 315.815 513.68C316.949 510.726 321.276 507.618 318.768 505.504C316.262 503.389 311.841 498.743 311.841 498.743C311.841 498.743 313.34 430.716 310.181 420.841C307.022 410.967 297.59 400.913 297.59 400.913C297.72 400.588 297.848 400.265 297.975 399.944C298.589 398.398 299.173 396.91 299.73 395.48C292.585 394.142 283.545 389.77 284.367 401.114C284.395 401.497 284.422 401.881 284.45 402.267" fill="#2E2D2D"/>
<path fill-rule="evenodd" clip-rule="evenodd" d="M275.619 479.827H279.836L279.367 512.605H276.615L275.619 479.827" fill="#803F46"/>
<path fill-rule="evenodd" clip-rule="evenodd" d="M472.616 351.593L454.699 331.768L483.586 356.577L483.51 360.257L379.944 360.234C379.944 360.234 380.336 356.94 379.739 356.94C379.142 356.94 477.101 356.698 477.101 356.698L472.616 351.593Z" fill="#D3D8BF"/>
<path fill-rule="evenodd" clip-rule="evenodd" d="M397.185 234.406L397.889 245.644L406.088 247.986L413.585 278.657L437.714 278.422L443.104 247.049L448.96 245.644L450.833 234.64L397.185 234.406Z" fill="#C3C6B4"/>
<path fill-rule="evenodd" clip-rule="evenodd" d="M472.623 247.983L477.308 275.845H495.113L498.393 247.983H472.623Z" fill="#C3C6B4"/>
<path fill-rule="evenodd" clip-rule="evenodd" d="M243.389 146.135L248.039 150.704L249.343 150.802L250.942 151.036C252.511 151.267 251.334 153.291 253.519 154.013C256.857 155.115 261.176 154.68 260.845 150.622C260.845 150.622 263.885 149.915 264.91 150.822C265.934 151.73 266.432 152.754 266.432 152.754C266.432 152.754 266.606 150.753 264.702 149.553C262.799 148.353 248.895 148.886 248.895 148.886L243.389 146.135Z" fill="#61292D"/>
<path fill-rule="evenodd" clip-rule="evenodd" d="M254.371 142.234L254.664 148.087L249.1 148.322C249.1 148.322 249.433 142.071 254.371 142.234Z" fill="#F7986E"/>
<path fill-rule="evenodd" clip-rule="evenodd" d="M259.846 152.945C260.347 152.945 260.755 152.498 260.755 151.95C260.755 151.402 260.347 150.955 259.846 150.955C259.347 150.955 258.939 151.402 258.939 151.95C258.939 152.498 259.347 152.945 259.846 152.945Z" fill="#EFECD7"/>
<path fill-rule="evenodd" clip-rule="evenodd" d="M249.803 152.942C254.772 157.195 259.711 157.235 264.621 153.059C259.289 155.571 254.351 155.532 249.803 152.942Z" fill="#D63023"/>
<path fill-rule="evenodd" clip-rule="evenodd" d="M248.895 148.885C256.244 148.504 261.514 148.727 264.702 149.552C260.699 147.589 255.43 147.366 248.895 148.885Z" fill="#FDE0CB"/>
<path fill-rule="evenodd" clip-rule="evenodd" d="M257.945 159.072C260.203 159.072 262.045 158.573 262.045 157.96C262.045 157.347 260.203 156.847 257.945 156.847C255.687 156.847 253.845 157.347 253.845 157.96C253.845 158.573 255.687 159.072 257.945 159.072Z" fill="white"/>
<path fill-rule="evenodd" clip-rule="evenodd" d="M260.644 174.169C260.644 174.169 263.338 175.808 265.329 175.925C267.321 176.042 269.273 174.681 271.43 174.805C272.938 174.892 274.109 175.549 274.676 175.935C275.244 175.548 276.412 174.895 277.917 174.808C280.074 174.684 282.027 176.045 284.018 175.928C286.009 175.811 288.703 174.172 288.703 174.172C288.649 187.231 260.699 187.219 260.644 174.169" fill="#BF1752"/>
<path fill-rule="evenodd" clip-rule="evenodd" d="M303.592 136.485C299.168 130.297 285.546 132.187 279.781 132.155C277.372 137.892 280.507 146.407 282.514 149.605C285.138 144.158 289.373 139.199 296.248 141.245C300.566 143.873 304.606 139.593 303.592 136.485Z" fill="#F17954"/>
<path fill-rule="evenodd" clip-rule="evenodd" d="M278.981 134.925L278.846 130.745C278.846 130.745 286.547 129.715 293.029 129.553C299.512 129.392 303.592 136.485 303.592 136.485C303.592 136.485 297.724 131.924 292.962 132.366C288.2 132.808 278.981 134.925 278.981 134.925" fill="#431D1A"/>
<path fill-rule="evenodd" clip-rule="evenodd" d="M305.27 146.118L300.584 150.742L295.285 151.192C295.285 151.192 294.002 154.756 290.072 154.694C287.688 154.655 285.179 153.631 285.415 150.723C285.415 150.723 284.775 149.898 283.749 150.806C282.725 151.714 282.226 152.738 282.226 152.738C282.226 152.738 282.053 150.737 283.957 149.537C285.861 148.336 299.764 148.869 299.764 148.869L305.27 146.118" fill="#61292D"/>
<path fill-rule="evenodd" clip-rule="evenodd" d="M294.289 142.218L293.996 148.072L299.559 148.306C299.559 148.306 299.227 142.056 294.289 142.218" fill="#F7986E"/>
<path fill-rule="evenodd" clip-rule="evenodd" d="M294.065 152.74C294.565 152.74 294.973 152.293 294.973 151.745C294.973 151.196 294.565 150.749 294.065 150.749C293.565 150.749 293.157 151.196 293.157 151.745C293.157 152.293 293.565 152.74 294.065 152.74Z" fill="#EFECD7"/>
<path fill-rule="evenodd" clip-rule="evenodd" d="M298.857 152.926C293.888 157.179 288.949 157.218 284.04 153.044C289.37 155.555 294.31 155.516 298.857 152.926Z" fill="#D63023"/>
<path fill-rule="evenodd" clip-rule="evenodd" d="M299.764 148.869C292.414 148.488 287.146 148.711 283.957 149.537C287.96 147.573 293.23 147.35 299.764 148.869Z" fill="#FDE0CB"/>
<path fill-rule="evenodd" clip-rule="evenodd" d="M290.714 159.057C292.972 159.057 294.813 158.557 294.813 157.944C294.813 157.331 292.972 156.832 290.714 156.832C288.456 156.832 286.615 157.331 286.615 157.944C286.615 158.557 288.456 159.057 290.714 159.057Z" fill="white"/>
<path fill-rule="evenodd" clip-rule="evenodd" d="M240.8 142.92C236.434 145.789 244.668 154.824 250.221 158.028C256.766 161.803 268.628 161.939 269.018 148.663C269.288 139.488 244.896 140.229 240.8 142.92V142.92ZM307.86 142.904C303.763 140.213 279.372 139.472 279.642 148.647C280.031 161.923 291.894 161.787 298.439 158.011C303.991 154.808 312.225 145.773 307.86 142.904V142.904ZM265.745 161.213C264.726 162.413 257.607 164.384 250.062 161.776C242.515 159.17 227.383 144.001 232.543 140.353C237.702 136.705 259.674 138.607 264.91 140.187L274.304 143.023L283.749 140.171C288.985 138.591 310.956 136.69 316.116 140.337C321.276 143.985 306.144 159.154 298.598 161.761C291.052 164.367 283.933 162.397 282.914 161.197C276.055 156.242 277.741 149.008 274.77 147.281C274.676 147.226 274.554 147.217 274.437 147.212C274.281 147.24 274.047 147.205 273.888 147.298C270.918 149.023 272.604 156.257 265.745 161.213" fill="#D11975"/>
<path fill-rule="evenodd" clip-rule="evenodd" d="M278.999 180.244C280.278 180.22 281.323 180.593 281.333 181.079C281.343 181.565 280.315 181.979 279.036 182.003C277.757 182.027 276.712 181.653 276.702 181.168C276.692 180.682 277.721 180.268 278.999 180.244Z" fill="#FCD1B1"/>
<path fill-rule="evenodd" clip-rule="evenodd" d="M372.462 239.349C372.462 239.349 384.644 219.214 388.861 219.214C393.078 219.214 411.816 234.469 411.816 234.469L438.057 234.583C438.057 234.583 444.383 225.535 446.725 225.067C449.069 224.6 467.342 237.008 467.342 237.008C467.342 237.008 449.537 219.448 446.492 220.619C443.446 221.789 436.184 229.516 436.184 229.516L444.15 206.805L432.201 228.345C432.201 228.345 432.669 205.635 431.029 201.186C429.39 196.738 420.488 194.865 420.488 194.865C420.488 194.865 427.047 199.314 427.516 201.655C427.984 203.996 428.219 226.004 428.219 226.004C428.219 226.004 422.127 210.551 417.207 207.976C412.288 205.4 401.745 205.4 401.745 205.4C401.745 205.4 412.991 208.912 414.632 210.551C416.271 212.19 422.361 226.238 422.361 226.238C422.361 226.238 409.946 214.063 406.666 212.424C403.385 210.786 396.358 211.019 396.358 211.019L405.728 216.638L412.991 226.004C412.991 226.004 392.843 215 390.501 214.766C388.158 214.532 372.462 239.349 372.462 239.349" fill="#B7E060"/>
<path fill-rule="evenodd" clip-rule="evenodd" d="M481.165 247.983C481.165 247.983 478.822 226.707 481.868 224.833C484.912 222.96 489.13 224.365 489.832 227.876C490.535 231.389 489.481 242.861 489.481 242.861C489.481 242.861 492.058 242.276 492.527 243.915C492.995 245.554 492.527 247.983 492.527 247.983H481.165Z" fill="#B7E060"/>
<path fill-rule="evenodd" clip-rule="evenodd" d="M126.373 262.634L126.256 268.136L122.155 268.253L120.984 272.701L120.867 283.12L122.155 287.452L126.021 287.568L126.138 320.698C126.138 320.698 124.732 323.624 125.084 325.029C125.435 326.434 126.958 343.056 126.958 343.056L230.741 343.993L232.614 325.497C232.614 325.497 232.792 322.941 232.205 321.809C231.617 320.677 226.524 315.37 226.524 315.37C226.524 315.37 225.294 314.376 224.65 314.316C224.006 314.258 164.15 314.258 164.15 314.258C164.15 314.258 161.983 314.492 161.691 312.092C161.397 309.692 160.811 289.439 160.811 289.439C160.811 289.439 160.811 284.99 167.371 284.522C173.93 284.053 192.204 284.756 192.204 284.756C192.204 284.756 195.6 284.639 197.006 289.205C198.411 293.77 199.818 298.57 200.989 299.506C202.16 300.443 221.253 299.974 221.253 299.974C221.253 299.974 221.815 300.407 222.874 296.643C223.934 292.881 224.65 277.028 224.65 277.028L224.705 265.572C224.705 265.572 224.767 262.571 223.245 262.044C221.722 261.516 129.009 260.697 129.009 260.697C129.009 260.697 126.373 261.106 126.373 262.634" fill="#B8B9A0"/>
<path fill-rule="evenodd" clip-rule="evenodd" d="M129.757 270.425L129.699 264.982C129.699 264.982 130.167 262.523 131.573 262.406C132.978 262.288 204.373 263.106 204.373 263.106L204.491 271.36L197.814 271.301L202.792 270.13L202.733 264.57L133.272 263.865C133.272 263.865 131.515 263.924 131.456 264.861C131.398 265.796 131.515 271.826 131.515 271.826L136.669 272.294L129.64 272.762L129.757 270.425" fill="#737460"/>
<path fill-rule="evenodd" clip-rule="evenodd" d="M130.766 274.859H134.866C136.219 274.859 137.326 275.965 137.326 277.318V308.457C137.326 309.809 136.219 310.915 134.866 310.915H130.766C129.413 310.915 128.307 309.809 128.307 308.457V277.318C128.307 275.965 129.413 274.859 130.766 274.859Z" fill="#476250"/>
<path fill-rule="evenodd" clip-rule="evenodd" d="M131.231 292.229H134.403C135.449 292.229 136.305 293.084 136.305 294.131V306.628C136.305 307.673 135.449 308.528 134.403 308.528H131.231C130.184 308.528 129.329 307.673 129.329 306.628V294.131C129.329 293.084 130.184 292.229 131.231 292.229" fill="#B8B9A0"/>
<path fill-rule="evenodd" clip-rule="evenodd" d="M155.717 279.544C154.311 283.641 154.428 290.314 154.428 290.314L154.662 313.843L126.114 313.943L126.133 319.229L218.783 318.584L223.315 318.553L229.459 318.509C228.003 316.911 226.524 315.37 226.524 315.37C226.524 315.37 225.294 314.376 224.65 314.316C224.575 314.31 223.706 314.304 222.229 314.299C221.141 314.295 219.724 314.291 218.05 314.288C211.919 314.277 202.348 314.269 192.964 314.265C178.332 314.258 164.149 314.258 164.149 314.258C164.149 314.258 161.983 314.492 161.69 312.092C161.397 309.692 160.811 289.439 160.811 289.439C160.811 289.439 160.811 284.99 167.371 284.522C167.564 284.508 167.767 284.495 167.98 284.483C174.991 284.094 192.203 284.755 192.203 284.755C192.203 284.755 195.6 284.639 197.006 289.205C197.152 289.68 197.299 290.16 197.445 290.636C198.702 294.729 199.939 298.667 200.988 299.506C201.807 300.161 211.373 300.129 217.065 300.051C218.617 300.03 219.882 300.005 220.602 299.989C221.019 299.98 221.253 299.974 221.253 299.974C221.253 299.974 221.815 300.407 222.874 296.643C223.197 295.498 223.487 293.233 223.736 290.636C224.061 287.234 224.313 283.265 224.47 280.493C224.587 278.427 224.65 277.028 224.65 277.028L224.655 276.05C223.654 276.072 222.372 276.091 220.867 276.107C220.598 276.11 220.322 276.112 220.039 276.115C218.979 276.125 217.823 276.134 216.588 276.142C201.945 276.234 176.222 276.179 167.758 276.157C165.986 276.152 164.97 276.149 164.97 276.149C164.97 276.149 157.122 275.446 155.717 279.544" fill="#8D8F76"/>
<path fill-rule="evenodd" clip-rule="evenodd" d="M198.185 281.016L203.574 297.64C203.574 297.64 218.248 298.15 219.387 298.108C220.527 298.066 221.027 296.938 221.378 295.064C221.73 293.191 221.169 276.104 221.169 276.104L164.97 276.149C164.97 276.149 192.915 277.854 195.257 278.909C197.6 279.963 198.185 281.016 198.185 281.016" fill="#787B63"/>
<path fill-rule="evenodd" clip-rule="evenodd" d="M206.557 300.039L206.612 305.94L204.68 305.968L204.649 306.524H203.567C203.567 306.524 203.567 305.735 202.718 305.559C201.868 305.383 201.575 307.197 201.985 307.812C202.395 308.427 203.362 307.432 203.362 307.432L205.09 307.373L206.202 308.076L206.349 316.212L210.332 316.036C210.332 316.036 208.838 314.886 208.692 314.275C208.545 313.665 208.662 313.05 208.662 313.05L210.097 313.08L210.039 311.441L208.516 311.412L208.486 308.251C208.486 308.251 209.687 308.338 209.599 307.109C209.512 305.879 208.925 305.675 208.925 305.675L208.982 300.08L206.557 300.039Z" fill="#33332C"/>
<path fill-rule="evenodd" clip-rule="evenodd" d="M206.767 288.523H210.04V261.592H206.767V288.523Z" fill="#666852"/>
<path fill-rule="evenodd" clip-rule="evenodd" d="M126.099 334.034H231.394L230.737 337.546H126.44L126.099 334.034Z" fill="#476250"/>
<path fill-rule="evenodd" clip-rule="evenodd" d="M229.148 323.51L125.031 324.33C125.031 324.33 124.137 322.285 125.864 321.318C127.591 320.349 130.519 321.052 130.519 321.052C130.519 321.052 228.445 321.052 229.148 323.51Z" fill="#D1D1B7"/>
<path fill-rule="evenodd" clip-rule="evenodd" d="M244.663 323.145C250.002 326.961 252.671 328.87 252.671 328.87C249.737 332.091 245.774 332.29 240.782 329.47L240.776 329.466C240.463 329.289 240.147 329.101 239.826 328.901L239.84 328.884L231.653 323.786C231.653 323.786 232.957 322.488 234.288 322.16C235.619 321.831 239.179 323.785 239.179 323.785L244.257 323.629L244.663 323.145" fill="#F17954"/>
<path fill-rule="evenodd" clip-rule="evenodd" d="M197.884 327.534C197.884 327.534 198.356 321.422 196.011 318.742C193.667 316.061 190.153 314.263 190.153 314.263L234.789 312.751L231.842 331.768C231.842 331.768 212.643 329.757 197.884 327.534" fill="#6085CC"/>
<path fill-rule="evenodd" clip-rule="evenodd" d="M297.045 307.87C289.352 312.276 276.539 319.4 267.842 323.114C254.683 328.736 250.169 331.369 248.352 330.602C246.535 329.837 240.165 319.516 238.923 318.758C237.68 317.999 224.803 318.434 223.725 318.15C222.646 317.868 221.986 316.541 221.986 316.541C221.986 316.541 232.114 315.311 233.4 315.36C234.684 315.41 230.113 314.643 228.182 314.857C226.251 315.07 220.707 315.917 219.465 315.158C218.223 314.399 218.3 313.555 218.3 313.555C218.3 313.555 216.994 312.491 216.817 311.796C216.639 311.101 223.454 309.496 225.638 309.048C227.82 308.599 232.298 309.955 232.22 309.43C232.141 308.906 229.841 307.508 227.577 307.345C225.313 307.183 221.948 307.091 221.032 305.914C220.116 304.736 220.031 303.416 220.96 303.444C221.89 303.473 231.005 305.003 232.198 305.678C233.39 306.352 251.089 321.018 252.793 321.394C254.498 321.77 283.288 302.323 288.24 297.833C289.714 296.496 291.023 295.394 292.136 294.507C294.181 292.549 297.648 289.276 302.732 287.072C309.713 284.044 316.796 283.834 318.335 289.658C318.785 291.364 316.796 295.66 315.56 296.918C314.323 298.176 297.045 307.87 297.045 307.87Z" fill="#FAB887"/>
<path fill-rule="evenodd" clip-rule="evenodd" d="M233.088 312.589C233.088 312.589 228.94 311.499 227.728 311.633C226.516 311.766 218.84 313.413 218.84 313.413C218.84 313.413 227.182 311.127 227.407 310.959C227.631 310.794 233.088 312.589 233.088 312.589Z" fill="#F17954"/>
<path fill-rule="evenodd" clip-rule="evenodd" d="M251.392 327.671C247.9 327.145 238.923 318.758 238.923 318.758L234.862 307.709C234.862 307.709 251.026 322.134 253.037 322.201C255.047 322.268 289.685 296.147 296.861 290.636C304.036 285.126 308.922 286.037 311.452 286.69C331.967 291.978 256.851 328.495 251.392 327.671" fill="#F7986E"/>
<path fill-rule="evenodd" clip-rule="evenodd" d="M145.079 278.072C149.443 278.072 153.003 274.764 153.003 270.708C153.003 266.652 149.443 263.344 145.079 263.344C140.715 263.344 137.155 266.652 137.155 270.708C137.155 274.764 140.715 278.072 145.079 278.072Z" fill="#D0D1B5"/>
<path fill-rule="evenodd" clip-rule="evenodd" d="M145.079 277.355C149.018 277.355 152.23 274.369 152.23 270.708C152.23 267.048 149.018 264.062 145.079 264.062C141.14 264.062 137.928 267.048 137.928 270.708C137.928 274.369 141.14 277.355 145.079 277.355Z" fill="#476250"/>
<path fill-rule="evenodd" clip-rule="evenodd" d="M145.079 274.948C147.592 274.948 149.641 273.043 149.641 270.708C149.641 268.373 147.592 266.468 145.079 266.468C142.567 266.468 140.517 268.373 140.517 270.708C140.517 273.043 142.567 274.948 145.079 274.948Z" fill="#A17F26"/>
<path fill-rule="evenodd" clip-rule="evenodd" d="M145.079 270.708C145.122 270.106 149.267 269.027 149.267 269.027C149.267 269.027 150.006 271.178 149.32 272.272C148.635 273.365 148.62 273.381 148.62 273.381L145.079 270.708" fill="#CDA338"/>
<path fill-rule="evenodd" clip-rule="evenodd" d="M144.241 274.877L145.421 266.481C145.308 266.472 145.194 266.468 145.079 266.468C142.56 266.468 140.517 268.367 140.517 270.709C140.517 272.784 142.122 274.511 144.241 274.877" fill="#75591D"/>
<path fill-rule="evenodd" clip-rule="evenodd" d="M145.825 311.094C150.19 311.094 153.749 307.786 153.749 303.73C153.749 299.674 150.19 296.366 145.825 296.366C141.461 296.366 137.902 299.674 137.902 303.73C137.902 307.786 141.461 311.094 145.825 311.094Z" fill="#D0D1B5"/>
<path fill-rule="evenodd" clip-rule="evenodd" d="M145.826 310.377C149.764 310.377 152.976 307.391 152.976 303.73C152.976 300.069 149.764 297.084 145.826 297.084C141.887 297.084 138.675 300.069 138.675 303.73C138.675 307.391 141.887 310.377 145.826 310.377Z" fill="#476250"/>
<path fill-rule="evenodd" clip-rule="evenodd" d="M145.826 307.97C148.339 307.97 150.387 306.065 150.387 303.73C150.387 301.395 148.339 299.49 145.826 299.49C143.314 299.49 141.264 301.395 141.264 303.73C141.264 306.065 143.314 307.97 145.826 307.97Z" fill="#A17F26"/>
<path fill-rule="evenodd" clip-rule="evenodd" d="M145.826 303.73C145.869 303.128 150.015 302.049 150.015 302.049C150.015 302.049 150.753 304.201 150.067 305.294C149.382 306.387 149.367 306.403 149.367 306.403L145.826 303.73" fill="#CDA338"/>
<path fill-rule="evenodd" clip-rule="evenodd" d="M144.987 307.899L146.168 299.503C146.055 299.495 145.941 299.491 145.826 299.491C143.306 299.491 141.264 301.389 141.264 303.731C141.264 305.806 142.868 307.534 144.987 307.899" fill="#75591D"/>
<path fill-rule="evenodd" clip-rule="evenodd" d="M188.919 273.661C192.357 273.661 195.161 271.055 195.161 267.86C195.161 264.664 192.357 262.058 188.919 262.058C185.481 262.058 182.677 264.664 182.677 267.86C182.677 271.055 185.481 273.661 188.919 273.661Z" fill="#D0D1B5"/>
<path fill-rule="evenodd" clip-rule="evenodd" d="M188.919 273.096C192.022 273.096 194.553 270.744 194.553 267.86C194.553 264.976 192.022 262.624 188.919 262.624C185.817 262.624 183.286 264.976 183.286 267.86C183.286 270.744 185.817 273.096 188.919 273.096Z" fill="#476250"/>
<path fill-rule="evenodd" clip-rule="evenodd" d="M188.919 271.2C190.898 271.2 192.513 269.699 192.513 267.859C192.513 266.02 190.898 264.52 188.919 264.52C186.94 264.52 185.325 266.02 185.325 267.859C185.325 269.699 186.94 271.2 188.919 271.2Z" fill="#A17F26"/>
<path fill-rule="evenodd" clip-rule="evenodd" d="M188.919 267.86C188.953 267.385 192.219 266.535 192.219 266.535C192.219 266.535 192.801 268.231 192.26 269.092C191.72 269.953 191.709 269.966 191.709 269.966L188.919 267.86Z" fill="#CDA338"/>
<path fill-rule="evenodd" clip-rule="evenodd" d="M188.258 271.144L189.189 264.529C189.099 264.523 189.01 264.52 188.919 264.52C186.934 264.52 185.325 266.015 185.325 267.86C185.325 269.495 186.589 270.856 188.258 271.144Z" fill="#75591D"/>
<path fill-rule="evenodd" clip-rule="evenodd" d="M334.298 482.247L314.482 359.938C314.482 359.938 326.333 356.684 331.253 356.941C336.172 357.197 336.173 360.991 340.624 359.093C345.075 357.197 361.006 357.197 361.006 357.197L364.989 484.119C364.989 484.119 352.572 482.949 351.87 485.992C351.167 489.036 351.835 493.095 351.835 493.095C351.835 493.095 342.03 402.642 337.813 398.662C333.597 394.681 327.974 399.13 327.74 403.813C327.506 408.496 334.298 482.247 334.298 482.247" fill="#4D79C5"/>
<path fill-rule="evenodd" clip-rule="evenodd" d="M273.567 342.649C273.567 342.649 313.585 344.814 316.847 344.341C320.109 343.867 324.497 339.664 324.497 339.664C324.497 339.664 344.96 339.643 349.879 339.639C354.798 339.635 374.01 345.025 371.198 346.965C368.386 348.905 356.673 349.607 356.673 349.607C356.673 349.607 355.971 344.925 348.942 345.158C341.914 345.393 335.355 349.139 330.903 350.778C326.452 352.416 308.8 356.94 308.8 356.94C308.8 356.94 282.484 355.599 277.723 351.481C272.963 347.362 258.948 347.972 258.948 347.972C258.948 347.972 266.526 343.097 273.567 342.649" fill="#4D79C5"/>
<path fill-rule="evenodd" clip-rule="evenodd" d="M305.605 508.581L315.568 514.36L315.913 520.639L323.059 509.283L327.041 511.624C327.041 511.624 315.913 528.716 314.742 529.067C313.57 529.418 297.171 530.589 296 530.589C294.829 530.589 294.316 527.024 294.316 527.024C294.316 527.024 303.555 528.196 305.165 526.934C306.776 525.672 307.127 523.331 307.127 523.331L302.658 521.065L305.605 508.581" fill="#EBE3A0"/>
<path fill-rule="evenodd" clip-rule="evenodd" d="M273.768 521.161C273.768 521.161 272.105 524.737 273.159 525.907C274.213 527.077 279.371 527.767 279.371 527.767L282.272 527.514L282.295 530.707L246.569 531.292L247.749 525.45C247.749 525.45 256.052 525.535 257.24 525.669C258.427 525.804 262.967 515.488 262.967 515.488L273.768 521.161" fill="#EBE3A0"/>
<path fill-rule="evenodd" clip-rule="evenodd" d="M160.934 255.073C167.495 254.881 170.899 255.48 170.899 255.48C170.515 259.819 167.481 262.375 161.8 263.15H161.799L161.792 263.151C161.436 263.199 161.07 263.241 160.693 263.276L160.694 263.254L151.091 264.149C151.091 264.149 151.341 262.327 152.202 261.261C153.063 260.194 157.08 259.595 157.08 259.595L161.028 256.399L160.934 255.073Z" fill="#F7986E"/>
</g>
<defs>
<radialGradient id="paint0_radial" cx="0" cy="0" r="1" gradientUnits="userSpaceOnUse" gradientTransform="translate(277.34 435.5) scale(273.105 272.941)">
<stop stop-color="#F1EDDD"/>
<stop offset="0.48" stop-color="#F0E4C1"/>
<stop offset="0.96" stop-color="#E0D9C5"/>
<stop offset="1" stop-color="#E0D9C5"/>
</radialGradient>
<clipPath id="clip0">
<rect width="566" height="566" fill="white"/>
</clipPath>
</defs>
</svg>
