<svg width="633" height="492" viewBox="0 0 633 492" fill="none" xmlns="http://www.w3.org/2000/svg">
<g clip-path="url(#clip0)">
<path d="M265.811 293.121C272.302 298.417 277.043 296.056 283.308 292.241L280.913 269.676L268.912 266.316C266.111 274.942 264.295 279.175 264.288 284.04C264.285 286.687 265.78 289.532 265.811 293.121Z" fill="#F68465"/>
<path d="M270.047 279.7C270.977 280.55 271.045 282.006 270.195 282.938L261.762 292.179C260.913 293.11 259.456 293.176 258.524 292.326C257.594 291.477 257.527 290.02 258.377 289.089L266.529 277.476C267.379 276.545 269.115 278.85 270.047 279.7Z" fill="#F68465"/>
<path d="M267.909 291.42C269.143 291.382 270.185 292.361 270.224 293.596L270.643 307.142C270.682 308.376 269.702 309.418 268.468 309.456C267.234 309.494 266.192 308.515 266.154 307.281L265.734 293.734C265.696 292.5 266.675 291.458 267.909 291.42Z" fill="#F68465"/>
<path d="M272.584 293.921C273.818 293.882 274.86 294.861 274.899 296.096L275.318 309.642C275.357 310.877 274.377 311.918 273.143 311.957C271.909 311.995 270.867 311.016 270.829 309.781L270.409 296.235C270.371 295 271.35 293.959 272.584 293.921Z" fill="#F68465"/>
<path d="M277.298 290.202C278.533 290.16 279.576 291.137 279.617 292.372L280.067 305.917C280.109 307.152 279.132 308.195 277.898 308.236C276.663 308.277 275.619 307.3 275.578 306.067L275.128 292.521C275.087 291.286 276.063 290.242 277.298 290.202Z" fill="#F68465"/>
<path d="M280.879 286.738C282.113 286.697 283.156 287.673 283.198 288.908L283.648 302.453C283.689 303.687 282.713 304.731 281.478 304.773C280.243 304.813 279.2 303.837 279.159 302.603L278.709 289.057C278.667 287.822 279.644 286.779 280.879 286.738Z" fill="#F68465"/>
<path d="M176.581 479.86L226.781 479.859C227.588 472.986 222.524 467.414 215.472 467.414H178.044L176.581 479.86Z" fill="#723731"/>
<path d="M240.644 479.86L290.843 479.859C291.651 472.986 286.587 467.414 279.535 467.414H242.106L240.644 479.86Z" fill="#723731"/>
<path d="M353.196 270.695L344.258 252.091L344.521 209.255L352.568 147.054L375.468 148.61L353.196 270.695Z" fill="#F68465"/>
<path d="M347.383 187.129L346.813 191.536L359.276 193.988L356.308 188.185L347.383 187.129Z" fill="#E56F56"/>
<path d="M376.235 463.103L363.829 463.851C363.829 463.851 354.28 238.113 358.122 238.199L395.549 235.724C394.004 235.69 382.609 373.083 382.609 373.083C395.174 401.592 375.052 463.076 376.235 463.103Z" fill="#F79682"/>
<path d="M425.54 479.709H382.625C382.16 470.537 392.049 469.738 398.078 469.738L413.013 463.102H424.698L425.54 479.709Z" fill="#23281F"/>
<path d="M424.826 463.102H413.013C413.013 463.102 383.909 325.344 395.549 235.724L426.672 243.006C425.125 242.972 422.748 371.128 422.748 371.128C432.795 388.649 423.642 463.075 424.826 463.102Z" fill="#F79682"/>
<path d="M362.762 454.119C363.196 390.739 352.619 253.348 354.837 253.399L395.491 235.72C393.948 235.685 384.667 454.88 384.667 454.88L362.762 454.119Z" fill="#5982CB"/>
<path d="M407.554 455.712C404.215 411.959 384.577 276.063 391.811 234.361L430.893 254.812C429.348 254.777 430.893 455.331 430.893 455.331L407.554 455.712Z" fill="#5982CB"/>
<path d="M424.698 463.102C424.698 463.102 410.344 476.652 398.078 469.738L413.013 463.102L416.529 455.998L424.698 463.102Z" fill="#F79682"/>
<path d="M377.144 479.709H334.229C333.764 470.537 343.653 469.738 349.682 469.738L364.617 463.102H376.302L377.144 479.709Z" fill="#23281F"/>
<path d="M376.302 463.102C376.302 463.102 361.948 476.652 349.682 469.738L364.617 463.102L368.133 455.998L376.302 463.102Z" fill="#F79682"/>
<path d="M391.106 310.925C391.32 306.441 391.532 302.03 391.742 297.752C392.031 302.051 392.356 306.452 392.71 310.907C392.171 310.917 391.636 310.923 391.106 310.925ZM356.775 305.444L356.762 305.211C356.766 305.289 356.771 305.365 356.775 305.444ZM430.206 302.649C430.206 302.644 430.206 302.638 430.206 302.633V302.649ZM356.207 295.105L356.203 295.038C356.204 295.06 356.206 295.084 356.207 295.105Z" fill="#C3CEE1"/>
<path d="M390.77 310.925C385.841 310.925 381.255 310.582 377.144 310.069C364.831 308.53 356.805 305.455 356.775 305.444C356.771 305.365 356.766 305.289 356.762 305.211L356.207 295.105C356.206 295.084 356.204 295.06 356.203 295.038L391.366 291.917C391.484 293.842 391.61 295.785 391.742 297.752C391.532 302.03 391.32 306.441 391.106 310.925H391.105L391.106 310.923C391.106 310.923 391.077 310.924 391.022 310.925C390.938 310.925 390.855 310.925 390.77 310.925Z" fill="#4F72C1"/>
<path d="M392.71 310.907C392.357 306.452 392.031 302.051 391.742 297.752C391.61 295.785 391.484 293.842 391.366 291.917L430.207 288.469V302.633C430.207 302.638 430.207 302.644 430.207 302.649C417.124 308.612 404.089 310.699 392.71 310.907Z" fill="#4F72C1"/>
<path d="M353.352 142.624C353.352 142.624 346.07 169.956 346.472 187.021L373.607 190.234L371.567 144.769L353.352 142.624Z" fill="#5982CB"/>
<path d="M415.364 241.749H370.668L363.867 213.62L353.853 188.965C351.996 183.872 352.158 178.109 354.297 173.161L367.248 143.211L419.307 143.944L415.364 241.749Z" fill="#5982CB"/>
<path d="M386.092 29.9254C386.092 29.9254 343.536 29.9442 354.772 72.936C354.772 72.936 351.71 112.552 365.597 134.522C374.328 148.334 396.907 156.169 396.907 156.169L386.092 29.9254Z" fill="#23281F"/>
<path d="M418.429 241.749H360.813L364.444 209.614L356.918 188.965C355.061 183.872 355.223 178.109 357.362 173.161L370.313 143.211L432.849 150.463C435.912 173.701 422.322 203.63 418.429 241.749Z" fill="#6799D7"/>
<path d="M432.65 157.078H360.083C352.849 157.078 352.568 147.054 352.568 147.054C352.583 133.064 373.835 127.193 387.603 117.998C389.865 116.487 392.189 113.458 394.394 114.454C418.633 125.386 442.187 131.381 442.156 144.013L442.116 145.01C441.858 151.648 437.598 157.078 432.65 157.078Z" fill="#6799D7"/>
<path d="M431.203 179.007C431.203 179.007 421.829 215.111 358.156 193.265L359.012 201.668L351.787 287.146C351.47 304.383 410.864 315.063 434.526 287.714L427.513 225.216L431.203 179.007Z" fill="#6799D7"/>
<path d="M369.518 277.063C368.996 277.954 367.84 278.256 366.949 277.736L361.419 274.502C360.526 273.98 360.224 272.823 360.746 271.931C361.267 271.04 362.424 270.738 363.314 271.259L368.845 274.492C369.738 275.014 370.04 276.171 369.518 277.063Z" fill="#F68465"/>
<path d="M368.67 268.807L368.518 268.986C367.892 269.726 366.775 269.818 366.036 269.191L362.19 267.007L357.818 263.676C357.079 263.049 357.056 260.548 357.683 259.809L355.5 259.554C356.126 258.815 354.275 252.73 355.014 253.355L362.638 258.224C364.563 261.526 366.471 265.419 368.464 266.324C369.203 266.95 369.296 268.068 368.67 268.807Z" fill="#F68465"/>
<path d="M363.04 274.246C362.155 274.778 360.995 274.489 360.463 273.604L354.054 262.934C353.522 262.049 353.811 260.889 354.697 260.357C355.582 259.825 356.742 260.114 357.274 261L363.683 271.669C364.216 272.554 363.927 273.715 363.04 274.246Z" fill="#F68465"/>
<path d="M367.652 281.514L367.387 281.806C366.768 282.493 365.671 282.53 364.949 281.889L357.482 275.255C356.76 274.614 356.677 273.528 357.297 272.841L357.56 272.548C358.179 271.862 359.276 271.824 359.999 272.465L367.466 279.099C368.187 279.74 368.271 280.827 367.652 281.514Z" fill="#F68465"/>
<path d="M359.665 276.281C358.689 276.623 357.612 276.104 357.271 275.129L353.162 263.381C352.821 262.405 353.339 261.328 354.315 260.987C355.291 260.646 356.367 261.164 356.708 262.14L360.817 273.888C361.159 274.863 360.639 275.941 359.665 276.281Z" fill="#F68465"/>
<path d="M364.955 281.932L364.69 282.227C364.07 282.913 363.003 282.969 362.316 282.349L355.223 275.953C354.537 275.334 354.482 274.266 355.1 273.579L355.367 273.286C355.985 272.599 357.053 272.544 357.739 273.163L364.832 279.559C365.519 280.178 365.574 281.246 364.955 281.932Z" fill="#F68465"/>
<path d="M357.579 277.122V277.123C356.603 277.464 355.527 276.945 355.185 275.97L351.076 264.222C350.735 263.246 351.254 262.169 352.23 261.828C353.205 261.487 354.282 262.005 354.623 262.981L358.732 274.729C359.073 275.704 358.554 276.782 357.579 277.122Z" fill="#F68465"/>
<path d="M362.307 282.612L362.042 282.907C361.422 283.594 360.355 283.648 359.668 283.03L352.575 276.634C351.889 276.014 351.834 274.947 352.453 274.26L352.719 273.965C353.337 273.28 354.406 273.224 355.091 273.843L362.184 280.239C362.871 280.858 362.926 281.926 362.307 282.612Z" fill="#F68465"/>
<path d="M354.461 277.045C353.487 277.387 352.409 276.867 352.068 275.893L347.959 264.144C347.619 263.168 348.137 262.092 349.113 261.75C350.088 261.409 351.165 261.928 351.506 262.904L355.615 274.652C355.956 275.627 355.437 276.704 354.461 277.045Z" fill="#F68465"/>
<path d="M344.258 252.091L347.959 264.144L355.061 264.234L359.869 258.916L356.067 252.782L352.178 247.464L344.258 252.091Z" fill="#F68465"/>
<path d="M353.919 280.522L365.617 253.652L379.848 265.274L379.776 286.36L360.406 291.965L353.919 280.522Z" fill="#6799D7"/>
<path d="M403.143 126.089C403.081 142.916 382.122 142.173 382.184 125.347L382.355 94.9962L403.051 93.4934L403.143 126.089Z" fill="#F68465"/>
<path d="M388.941 114.787C377.306 115.112 367.613 106.04 367.291 94.5233L366.342 60.5804C366.019 49.064 375.19 39.464 386.825 39.1385C398.46 38.813 415.664 46.0741 415.986 57.5906L411.317 91.3642C409.477 108.474 400.576 114.461 388.941 114.787Z" fill="#F68465"/>
<path d="M383.034 116.447C355.794 117.21 361.101 62.2842 361.101 62.2842C360.778 50.7331 369.649 41.1143 380.916 40.7987C392.185 40.4841 401.58 49.5914 401.903 61.1424C401.903 61.1424 411.139 115.661 383.034 116.447Z" fill="#F79682"/>
<path d="M368.154 81.972C369.254 86.2392 368.02 90.2819 365.397 91.0001C362.774 91.7194 359.757 88.8423 358.657 84.5751C357.557 80.3069 358.792 76.2653 361.414 75.546C364.037 74.8277 367.054 77.7038 368.154 81.972Z" fill="#F79682"/>
<path d="M377.16 82.914L372.287 87.4612C371.226 88.6584 372.724 92.0253 377.336 92.0065L377.16 82.914Z" fill="#D27554"/>
<path d="M396.016 80.0634C396.016 82.4596 394.56 84.4028 392.763 84.4028C390.967 84.4028 389.51 82.4596 389.51 80.0634C389.51 77.6661 390.967 75.723 392.763 75.723C394.56 75.723 396.016 77.6661 396.016 80.0634Z" fill="#23281F"/>
<path d="M374.449 80.0634C374.449 82.4596 372.991 84.4028 371.195 84.4028C369.399 84.4028 367.943 82.4596 367.943 80.0634C367.943 77.6661 369.399 75.723 371.195 75.723C372.991 75.723 374.449 77.6661 374.449 80.0634Z" fill="#23281F"/>
<path d="M369.586 96.4941H389.139C389.139 96.4941 386.897 104.529 378.483 104.529C371.313 104.529 369.586 96.4941 369.586 96.4941Z" fill="white"/>
<path d="M425.964 176.393C425.964 176.393 429.087 185.265 416.905 197.183C417.267 219.047 427.397 246.007 421.726 297.005C421.726 297.005 428.495 296.194 434.526 287.714L429.809 196.464L425.964 176.393Z" fill="#5982CB"/>
<path d="M403.115 283.18C403.414 284.215 404.469 284.828 405.457 284.54L411.59 282.755C412.58 282.467 413.145 281.383 412.845 280.346C412.545 279.311 411.491 278.699 410.502 278.986L404.369 280.771C403.38 281.059 402.814 282.144 403.115 283.18Z" fill="#F79682"/>
<path d="M405.866 275.096L405.971 275.316C406.408 276.226 407.473 276.617 408.338 276.182L412.588 275.006L417.617 272.814C418.483 272.381 419.089 269.869 418.652 268.958L420.834 269.281C420.398 268.371 423.618 262.739 422.753 263.172L415.941 265.461C414.791 265.848 413.757 266.52 412.938 267.415C410.698 269.864 408.454 272.33 406.645 272.651C405.78 273.086 405.429 274.185 405.866 275.096Z" fill="#F79682"/>
<path d="M410.072 282.066C410.81 282.838 412.005 282.855 412.729 282.105L421.453 273.069C422.177 272.319 422.166 271.075 421.429 270.303C420.692 269.533 419.496 269.516 418.771 270.266L410.048 279.301C409.324 280.051 409.335 281.295 410.072 282.066Z" fill="#F79682"/>
<path d="M403.892 288.156L404.079 288.518C404.522 289.376 405.58 289.705 406.432 289.252L415.243 284.56C416.094 284.105 416.428 283.034 415.986 282.176L415.799 281.816C415.357 280.958 414.298 280.629 413.446 281.082L404.634 285.776C403.783 286.229 403.45 287.3 403.892 288.156Z" fill="#F79682"/>
<path d="M412.882 285.013C413.75 285.615 414.922 285.375 415.484 284.479L422.212 273.763C422.773 272.868 422.522 271.642 421.653 271.039L421.646 271.034C420.781 270.434 419.615 270.672 419.056 271.564L412.324 282.289C411.762 283.184 412.012 284.41 412.882 285.013Z" fill="#F79682"/>
<path d="M406.417 289.294L406.607 289.661C407.048 290.516 408.074 290.855 408.886 290.415L417.277 285.862C418.09 285.421 418.392 284.361 417.951 283.506L417.761 283.139C417.319 282.283 416.293 281.944 415.482 282.385L407.09 286.937C406.277 287.378 405.975 288.438 406.417 289.294Z" fill="#F79682"/>
<path d="M414.713 286.413V286.414C415.583 287.015 416.753 286.776 417.315 285.88L424.048 275.155C424.608 274.265 424.358 273.045 423.494 272.446L423.477 272.435C422.612 271.835 421.448 272.073 420.889 272.965L414.156 283.689C413.593 284.585 413.844 285.811 414.713 286.413Z" fill="#F79682"/>
<path d="M408.833 290.682L409.023 291.049C409.464 291.905 410.49 292.244 411.303 291.803L419.695 287.251C420.506 286.809 420.809 285.75 420.367 284.894L420.177 284.527C419.735 283.672 418.71 283.333 417.898 283.773L409.506 288.326C408.695 288.766 408.392 289.827 408.833 290.682Z" fill="#F79682"/>
<path d="M417.763 287.164C418.633 287.766 419.803 287.526 420.365 286.63L427.098 275.905C427.658 275.015 427.407 273.795 426.544 273.196L426.535 273.19C425.666 272.588 424.495 272.827 423.933 273.723L417.205 284.44C416.643 285.335 416.894 286.561 417.763 287.164Z" fill="#F79682"/>
<path d="M433.511 264.758L426.378 277.054L420.17 274.109L414.29 272.858L409.939 266.669L425.089 257.439L433.511 264.758Z" fill="#F79682"/>
<path d="M405.133 258.775L424.582 283.441L410.575 295.334L389.851 291.445L387.845 271.38L405.133 258.775Z" fill="#6799D7"/>
<path d="M422.272 261.567L430.694 268.886C466.074 225.074 455.433 191.92 438.417 144.627L427.061 170.529C440.565 202.721 447.331 221.782 422.272 261.567Z" fill="#F79682"/>
<path d="M430.806 198.866L458.226 190.233C458.226 190.233 442.758 137.316 438.181 135.668C433.603 134.02 422.902 160.981 422.902 160.981L430.806 198.866Z" fill="#6799D7"/>
<path d="M358.156 193.265C358.156 193.265 384.41 212.224 422.272 190.829V236.699C422.272 236.699 422.151 216.902 358.404 208.874L358.156 193.265Z" fill="#5982CB"/>
<path d="M385.286 72.0573C385.286 72.0573 392.711 70.691 399.738 74.3547C400.303 74.6495 400.694 74.0015 400.36 73.4603C398.848 71.0145 393.776 66.7938 385.044 68.6518L385.286 72.0573Z" fill="#23281F"/>
<path d="M373.691 71.6862C373.691 71.6862 368.116 71.0095 360.683 72.6123L361.103 70.8927C364.027 68.9238 368.196 67.1232 373.568 68.9536L373.691 71.6862Z" fill="#23281F"/>
<path d="M422.902 160.981L428.315 190.233L421.725 197.183L422.902 160.981Z" fill="#5982CB"/>
<path d="M376.609 124.299L390.214 158.559L385.938 163.983L414.29 128.023L392.802 119.235C386.927 119.514 388.862 117.82 376.609 124.299Z" fill="#F68465"/>
<path d="M377.922 31.6924C377.922 31.6924 363.486 38.1789 364.862 45.9505C366.116 53.0325 382.264 61.184 399.702 66.4386C422.973 73.4504 407.832 101.989 400.863 111.022C394.547 119.208 384.467 125.349 384.467 125.349C384.467 125.349 422.033 125.445 426.729 103.259C429.722 89.1223 412.338 33.0113 377.922 31.6924Z" fill="#23281F"/>
<path d="M390.214 158.559L383.737 167.351L388.478 154.19L390.214 158.559Z" fill="#5982CB"/>
<path d="M373.252 133.96C376.208 142.093 379.489 150.084 383.097 157.95C383.495 158.817 384.774 158.064 384.378 157.201C380.823 149.452 377.595 141.577 374.682 133.565C374.359 132.675 372.924 133.06 373.252 133.96Z" fill="#5982CB"/>
<path d="M394.976 163.756C400.962 157.6 406.684 151.208 412.141 144.578C412.744 143.846 411.7 142.791 411.093 143.529C405.635 150.158 399.914 156.551 393.926 162.707C393.26 163.392 394.309 164.442 394.976 163.756Z" fill="#5982CB"/>
<path d="M377.922 31.6924C377.922 31.6924 427.154 12.4449 429.963 75.1611C431.452 108.407 440.857 144.599 402.564 153.801C402.564 153.801 381.253 159.535 400.658 126.953C406.394 117.321 420.23 98.094 415.085 86.6736C400.616 54.5571 377.922 31.6924 377.922 31.6924Z" fill="#23281F"/>
<path d="M408.016 82.4005C406.415 86.5143 407.241 90.6757 409.861 91.6938C412.481 92.7129 415.902 90.2028 417.504 86.0879C419.105 81.9741 418.279 77.8127 415.659 76.7947C413.039 75.7766 409.617 78.2856 408.016 82.4005Z" fill="#F68465"/>
<path d="M364.769 131.078L364.317 157.078H350.031C350.031 157.078 351.473 141.52 356.987 136.916C362.501 132.311 364.769 131.078 364.769 131.078Z" fill="#5982CB"/>
<path d="M378.236 57.9735C378.236 57.9735 407.577 62.8788 425.716 51.67L428.573 62.3198C428.573 62.3198 411.621 73.8085 387.84 62.3198L378.236 57.9735Z" fill="#2B3228"/>
<path d="M361.202 59.5487C361.202 59.5487 354.748 59.7555 352.883 58.1477C352.883 58.1477 352.988 63.1025 353.181 64.5995H360.929L361.202 59.5487Z" fill="#2B3228"/>
<path d="M363.425 454.141L378.101 454.651L377.287 457.552L363.555 457.271L363.425 454.141Z" fill="#F68465"/>
<path d="M411.52 455.648L425.104 455.426L424.932 457.881H411.957L411.52 455.648Z" fill="#F68465"/>
<path d="M436.753 196.994L452.579 192.01L453.213 195.851L437.649 200.782L436.753 196.994Z" fill="#F68465"/>
<path d="M403.348 182.595C404.716 175.514 409.738 170.665 414.31 165.442C417.932 161.301 420.976 156.876 423.073 151.762C427.668 140.556 427.625 127.89 423.026 116.708C422.308 114.966 419.436 115.729 420.163 117.497C425.09 129.472 424.64 143.213 418.434 154.668C413.24 164.255 402.646 170.625 400.486 181.807C400.125 183.673 402.986 184.472 403.348 182.595Z" fill="#23281F"/>
<path d="M403.123 190.361L397.551 189.304L399.105 181.077L404.677 182.134L403.123 190.361Z" fill="#E0E6EA"/>
<path d="M403.978 196.088L393.115 194.028L394.502 186.719L405.364 188.78L403.978 196.088Z" fill="#FCFDFE"/>
<path d="M408.549 187.9L405.364 188.78L403.978 196.088L407.116 197.578L408.549 187.9Z" fill="#23281F"/>
<path d="M389.586 196.99L394.55 194.555L395.983 187L392.418 182.061L389.586 196.99Z" fill="#E0E6EA"/>
<path d="M375.86 121.053C370.996 123.522 364.932 129.401 364.001 135.003C363.152 140.108 364.656 144.69 363.068 149.881C361.635 154.565 359.34 158.926 357.844 163.588C357.259 165.412 360.125 166.192 360.706 164.378C363.033 157.124 367.409 150.271 367.22 142.417C367.105 137.649 366.568 134.202 369.778 130.271C371.872 127.706 374.384 125.126 377.358 123.615C379.061 122.75 377.561 120.189 375.86 121.053Z" fill="#23281F"/>
<path d="M364.428 140.29C366.002 147.8 373.739 154.578 370.964 162.836C370.355 164.651 373.22 165.429 373.826 163.626C376.876 154.552 368.999 147.656 367.29 139.501C366.899 137.633 364.037 138.423 364.428 140.29Z" fill="#23281F"/>
<path d="M361.946 168.045L365.486 190.688C366.43 195.559 367.331 198.276 373.434 197.453C373.503 198.305 373.563 199.157 373.585 200.01L372.641 200.157C368.183 200.853 363.964 197.834 363.268 193.376L359.026 166.243C358.33 161.785 361.262 163.672 361.946 168.045Z" fill="white"/>
<path d="M376.314 197.004L373.088 197.144C372.181 197.184 371.47 197.959 371.509 198.867L371.53 199.335C371.57 200.243 372.344 200.953 373.253 200.914L376.478 200.773C377.386 200.734 378.097 199.958 378.057 199.051L378.036 198.583C377.997 197.675 377.222 196.964 376.314 197.004Z" fill="#23281F"/>
<path d="M369.69 167.255L363.339 189.275C361.792 193.989 360.557 196.571 354.606 194.989C354.43 195.826 354.263 196.663 354.135 197.507L355.052 197.772C359.388 199.022 363.952 196.555 365.203 192.219L372.812 165.832C374.063 161.497 370.916 163.002 369.69 167.255Z" fill="white"/>
<path d="M351.804 194.183L354.987 194.727C355.882 194.88 356.49 195.738 356.337 196.634L356.258 197.096C356.105 197.991 355.247 198.599 354.351 198.446L351.169 197.902C350.273 197.749 349.665 196.891 349.818 195.996L349.897 195.534C350.051 194.638 350.908 194.031 351.804 194.183Z" fill="#23281F"/>
<path d="M360.614 166.196H358.957C358.097 166.196 357.4 165.5 357.4 164.64V163.755C357.4 162.895 358.097 162.198 358.957 162.198H360.614C361.474 162.198 362.171 162.895 362.171 163.755V164.64C362.171 165.5 361.474 166.196 360.614 166.196Z" fill="#E0E6EA"/>
<path d="M372.152 166.323L370.529 165.988C369.687 165.814 369.146 164.989 369.32 164.147L369.499 163.281C369.673 162.439 370.497 161.898 371.339 162.072L372.962 162.407C373.804 162.581 374.345 163.405 374.171 164.247L373.992 165.114C373.818 165.956 372.995 166.497 372.152 166.323Z" fill="#E0E6EA"/>
<path d="M384.667 454.88C384.667 454.88 388.074 374.425 391.102 311.01L384.667 454.88Z" fill="#C3CEE1"/>
<path d="M384.667 454.88L378.101 454.652L377.144 310.069C379.035 310.828 384.479 310.957 387.984 310.957C389.536 310.957 390.708 310.933 391.022 310.925C391.05 310.925 391.078 310.925 391.105 310.925L391.102 311.01C388.073 374.425 384.667 454.88 384.667 454.88Z" fill="#4F72C1"/>
<path d="M391.022 310.925C391.078 310.924 391.106 310.923 391.106 310.923C391.079 310.925 391.05 310.925 391.022 310.925Z" fill="#4666B9"/>
<path d="M430.893 455.331C430.893 455.331 430.173 361.962 430.206 302.65L430.893 455.331Z" fill="#C3CEE1"/>
<path d="M425.104 455.426L421.725 307.001L430.206 302.649C430.173 361.962 430.893 455.331 430.893 455.331L425.104 455.426Z" fill="#4F72C1"/>
<path d="M241.371 468.866L274.169 467.414C278.066 467.324 270.92 239.488 267.024 239.577L229.568 236C232.334 235.936 244.138 468.803 241.371 468.866Z" fill="#51B57D"/>
<path d="M177.782 468.866L211.379 467.414C213.863 467.44 229.35 272.168 226.865 272.142L186.724 236.213C187.722 236.224 178.782 468.876 177.782 468.866Z" fill="#51B57D"/>
<path d="M186.785 304.833H260.349L264.632 249.275H186.724L186.785 304.833Z" fill="#51B57D"/>
<path d="M271.204 292.624C271.036 288.975 270.866 285.447 270.695 282.056C270.847 281.549 270.818 281 270.615 280.509C270.585 279.901 270.553 279.296 270.521 278.696L270.792 278.692L271.204 292.624Z" fill="#CC7664"/>
<path d="M270.695 282.056C270.668 281.54 270.642 281.02 270.615 280.509C270.818 281 270.847 281.549 270.695 282.056Z" fill="#CC7664"/>
<path d="M261.168 294.209L262.352 278.848L270.522 278.696C270.553 279.296 270.585 279.9 270.616 280.509C270.642 281.019 270.668 281.54 270.695 282.056C270.866 285.447 271.036 288.975 271.204 292.624L271.205 292.631C267.719 293.214 264.378 293.738 261.168 294.209Z" fill="#47A07E"/>
<path d="M221.529 297.668L231.851 279.54C231.874 279.498 231.898 279.454 231.92 279.412L262.352 278.848L261.168 294.209C244.601 296.642 231.65 297.643 221.529 297.668Z" fill="#47A07E"/>
<path d="M278.987 164.757C278.987 164.757 285.195 238.962 280.913 269.676L271.996 274.99L261.556 146.359L278.987 164.757Z" fill="#F68465"/>
<path d="M181.038 284.946C212.869 291.447 243.814 291.874 273.687 284.946L271.368 134.44L177.74 127.211L181.038 284.946Z" fill="#76CE95"/>
<path d="M176.723 148.708H274.716C284.486 148.708 277.597 133.763 277.597 133.763C277.324 123.687 251.122 107.626 231.331 107.44C187.634 107.029 168.64 120.69 163.888 134.941L163.941 135.991C164.289 142.985 170.041 148.708 176.723 148.708Z" fill="#76CE95"/>
<path d="M277.597 133.763L289.251 169.948L270.198 183.946L253.483 157.623L277.597 133.763Z" fill="#76CE95"/>
<path d="M229.828 99.9184C242.917 98.4591 252.346 86.6666 250.886 73.578L246.588 35.0029C245.13 21.9143 233.337 12.4865 220.248 13.9448C207.159 15.4032 189.031 26.325 190.489 39.4136L201.057 76.9152C205.822 95.9945 216.74 101.377 229.828 99.9184Z" fill="#F68465"/>
<path d="M258.019 53.2561C258.019 53.2561 254.201 56.71 252.553 49.8783C250.344 40.7136 248.368 19.6704 243.842 18.8551C242.582 18.6286 233.839 17.0555 238.307 14.8115C245.766 11.0677 255.887 21.8915 256.194 24.6391L258.019 53.2561Z" fill="#4B2C25"/>
<path d="M208.158 110.771C208.708 126.765 236.516 123.621 235.967 107.627L234.899 78.7772L207.377 76.7787L208.158 110.771Z" fill="#F68465"/>
<path d="M237.821 100.746C269.231 97.246 254.414 35.9199 254.414 35.9199C252.952 22.7928 241.234 13.3254 228.241 14.7728C215.248 16.2203 205.902 28.0355 207.365 41.1627C207.365 41.1627 205.412 104.358 237.821 100.746Z" fill="#F79682"/>
<path d="M249.297 58.8571C248.694 63.8159 250.764 68.1465 253.923 68.5294C257.08 68.9113 260.128 65.2021 260.731 60.2433C261.334 55.2845 259.263 50.9549 256.105 50.572C252.948 50.1891 249.9 53.8993 249.297 58.8571Z" fill="#F79682"/>
<path d="M237.656 59.7633L244.166 64.541C245.665 66.6178 244.336 70.9968 239.165 71.6982L237.656 59.7633Z" fill="#D27554"/>
<path d="M203.283 65.742C205.722 70.1012 205.448 74.8929 202.671 76.4442C199.895 77.9966 195.668 75.7199 193.229 71.3607C190.79 67.0015 191.064 62.2099 193.84 60.6576C196.616 59.1062 200.844 61.3818 203.283 65.742Z" fill="#F68465"/>
<path d="M177.783 191.382L195.211 162.073L185.77 263.683L169.423 256.725L177.783 191.382Z" fill="#51B57D"/>
<path d="M248.825 75.7123L226.487 77.5368C226.487 77.5368 228.992 87.8728 238.605 87.0873C246.797 86.4184 248.825 75.7123 248.825 75.7123Z" fill="white"/>
<path d="M256.194 24.6391C256.447 24.8103 239.352 18.1913 201.931 34.347L205.223 74.6486L196.559 60.9555C196.559 60.9555 169.795 14.0141 215.485 3.24958C254.184 -5.8676 256.194 24.6391 256.194 24.6391Z" fill="#4B2C25"/>
<path d="M143.379 279.16L164.875 241.405C165.664 240.019 167.425 239.537 168.809 240.325L230.771 275.607C232.155 276.395 232.638 278.156 231.85 279.54L210.353 317.295C209.565 318.681 207.803 319.163 206.419 318.375L144.457 283.093C143.073 282.306 142.59 280.545 143.379 279.16Z" fill="#23281F"/>
<path d="M148.07 280.686L169.033 243.869L226.688 276.697L205.725 313.514L148.07 280.686Z" fill="white"/>
<path d="M205.701 305.176L218.341 282.988C219.047 281.752 220.62 281.32 221.856 282.025L222.814 282.57C224.051 283.274 224.482 284.849 223.778 286.085L211.138 308.273C210.433 309.51 208.86 309.941 207.623 309.238L206.665 308.692C205.429 307.987 204.996 306.413 205.701 305.176Z" fill="#3E3D3F"/>
<path d="M181.159 182.958L179.064 221.099L185.77 278.522L174.034 282.714L158.106 225.71L158.107 173.737L181.159 182.958Z" fill="#F79682"/>
<path d="M185.77 294.982L184.983 302.257L185.553 305.332C185.785 306.582 184.433 307.521 183.342 306.869L171.938 300.056L169.423 289.211L172.724 271.921L185.77 278.522L192.107 289.983L192.829 300.668C192.829 300.668 195.68 307.233 190.561 304.381C189.007 303.515 188.237 300.818 187.716 298.971C187.046 296.595 185.77 294.982 185.77 294.982Z" fill="#F79682"/>
<path d="M199.162 137.68C199.938 139.232 186.724 194.296 186.724 194.296L154.965 183.946L163.889 134.941L199.162 137.68Z" fill="#76CE95"/>
<path d="M249.743 57.7042C249.919 60.0945 248.608 62.1396 246.816 62.2702C245.024 62.4018 243.429 60.5704 243.254 58.1791C243.079 55.7887 244.39 53.7447 246.182 53.6131C247.973 53.4825 249.568 55.3138 249.743 57.7042Z" fill="#23281F"/>
<path d="M224.546 59.9323C224.721 62.3236 223.411 64.3677 221.618 64.4993C219.826 64.6299 218.232 62.7985 218.057 60.4082C217.882 58.0178 219.193 55.9728 220.985 55.8422C222.777 55.7106 224.37 57.5419 224.546 59.9323Z" fill="#23281F"/>
<path d="M227.398 52.3645C222.534 52.6277 217.763 53.7556 213.089 55.8066C212.197 56.0213 211.28 55.4129 211.05 54.4541C210.819 53.4954 211.359 52.5367 212.25 52.322C216.857 50.3225 221.605 49.06 226.56 48.8789C227.451 48.6652 228.369 49.2737 228.599 50.2324C228.83 51.1902 228.289 52.1498 227.398 52.3645Z" fill="#4B2C25"/>
<path d="M255.647 49.3481C251.447 48.4962 247.155 48.5061 242.763 49.4371C241.961 49.443 241.299 48.6417 241.292 47.6552C241.285 46.6698 241.936 45.8585 242.739 45.8536C247.063 44.9562 251.362 44.8098 255.622 45.7635C256.425 45.7576 257.087 46.56 257.094 47.5454C257.1 48.5308 256.449 49.3421 255.647 49.3481Z" fill="#4B2C25"/>
<path d="M210.996 34.3707C210.996 37.225 208.682 39.5382 205.829 39.5382C202.974 39.5382 200.66 37.225 200.66 34.3707C200.66 31.5163 202.974 29.2031 205.829 29.2031C208.682 29.2031 210.996 31.5163 210.996 34.3707Z" fill="#4B2C25"/>
<path d="M218.251 29.2032C218.251 32.0575 215.938 34.3707 213.084 34.3707C210.229 34.3707 207.916 32.0575 207.916 29.2032C207.916 26.3488 210.229 24.0356 213.084 24.0356C215.938 24.0356 218.251 26.3488 218.251 29.2032Z" fill="#4B2C25"/>
<path d="M227.65 25.5275C227.65 28.3818 225.337 30.696 222.483 30.696C219.628 30.696 217.315 28.3818 217.315 25.5275C217.315 22.6741 219.628 20.3599 222.483 20.3599C225.337 20.3599 227.65 22.6741 227.65 25.5275Z" fill="#4B2C25"/>
<path d="M234.713 24.0356C234.713 26.889 232.399 29.2031 229.545 29.2031C226.691 29.2031 224.377 26.889 224.377 24.0356C224.377 21.1812 226.691 18.867 229.545 18.867C232.399 18.867 234.713 21.1812 234.713 24.0356Z" fill="#4B2C25"/>
<path d="M242.896 24.0356C242.896 26.889 240.582 29.2031 237.728 29.2031C234.874 29.2031 232.56 26.889 232.56 24.0356C232.56 21.1812 234.874 18.867 237.728 18.867C240.582 18.867 242.896 21.1812 242.896 24.0356Z" fill="#4B2C25"/>
<path d="M251.667 24.0356C251.667 26.889 249.352 29.2031 246.498 29.2031C243.645 29.2031 241.331 26.889 241.331 24.0356C241.331 21.1812 243.645 18.867 246.498 18.867C249.352 18.867 251.667 21.1812 251.667 24.0356Z" fill="#4B2C25"/>
<path d="M253.18 34.3707C250.326 34.3707 248.013 32.0575 248.013 29.2032C248.013 26.3488 250.326 24.0356 253.18 24.0356C256.035 24.0356 256.035 34.3707 253.18 34.3707Z" fill="#4B2C25"/>
<path d="M207.214 39.9351C207.214 42.7885 204.901 45.1027 202.046 45.1027C199.192 45.1027 196.879 42.7885 196.879 39.9351C196.879 37.0807 199.192 34.7666 202.046 34.7666C204.901 34.7666 207.214 37.0807 207.214 39.9351Z" fill="#4B2C25"/>
<path d="M201.697 110.087L231.331 139.011L241.2 108.024C241.2 108.024 230.507 104.938 201.697 110.087Z" fill="#F68465"/>
<path d="M231.331 139.011L238.257 147.329L233.926 130.862L231.331 139.011Z" fill="#51B57D"/>
<path d="M205.293 165.182C206.449 155.621 202.316 145.308 200.373 136.074C198.55 127.414 195.215 112.181 207.137 109.604C209.004 109.2 208.214 106.338 206.349 106.741C182.966 111.797 204.047 150.927 202.325 165.182C202.096 167.075 205.067 167.058 205.293 165.182Z" fill="#23281F"/>
<path d="M197.045 175.822C196.578 179.731 199.369 183.277 203.277 183.744C207.185 184.21 210.732 181.42 211.198 177.511C211.665 173.603 208.874 170.056 204.966 169.59C201.058 169.123 197.511 171.914 197.045 175.822Z" fill="#E0E6EA"/>
<path d="M200.773 172.024L206.838 171.845L206.553 162.217L200.488 162.397L200.773 172.024Z" fill="#E0E6EA"/>
<path d="M198.451 174.535C198.091 177.546 200.241 180.277 203.251 180.636C206.262 180.997 208.994 178.847 209.353 175.836C209.712 172.826 207.562 170.094 204.552 169.734C201.542 169.375 198.81 171.525 198.451 174.535Z" fill="#FCFDFE"/>
<path d="M198.223 172.36C197.864 175.371 200.013 178.103 203.024 178.462C206.034 178.821 208.766 176.672 209.125 173.661C209.484 170.651 207.336 167.919 204.325 167.56C201.314 167.201 198.582 169.35 198.223 172.36Z" fill="#23281F"/>
<path d="M236.871 107.481C240.288 108.568 243.471 111.019 246.028 113.461C249.537 116.811 249.094 120.783 249.891 125.194C251.237 132.651 256.459 138.523 259.811 145.105C260.679 146.807 263.241 145.307 262.375 143.607C260.297 139.529 257.567 135.835 255.446 131.783C254.047 129.109 252.994 126.338 252.619 123.333C252.338 121.076 252.502 118.743 251.777 116.553C249.982 111.133 242.862 106.272 237.659 104.619C235.835 104.039 235.054 106.904 236.871 107.481Z" fill="#23281F"/>
<path d="M249.224 121.646C248.784 130.033 242.248 137.978 246.743 146.48C247.636 148.169 250.199 146.671 249.305 144.982C245.318 137.44 251.799 129.152 252.192 121.646C252.292 119.737 249.324 119.743 249.224 121.646Z" fill="#23281F"/>
<path d="M259.113 148.795L259.274 171.712C259.129 176.672 258.677 179.499 252.522 179.672C252.592 180.523 252.669 181.374 252.786 182.219L253.74 182.213C258.253 182.181 261.929 178.519 261.897 174.007L261.703 146.545C261.671 142.033 259.081 144.37 259.113 148.795Z" fill="white"/>
<path d="M249.608 179.693L252.813 179.311C253.716 179.204 254.542 179.854 254.65 180.756L254.705 181.221C254.812 182.123 254.162 182.949 253.26 183.057L250.054 183.439C249.152 183.547 248.326 182.897 248.218 181.995L248.162 181.53C248.054 180.627 248.705 179.8 249.608 179.693Z" fill="#23281F"/>
<path d="M251.343 149.265L261.165 169.971C263.453 174.374 265.089 176.723 270.707 174.202C271.015 174.999 271.314 175.798 271.577 176.611L270.714 177.019C266.637 178.954 261.735 177.255 259.802 173.178L248.032 148.365C246.099 144.288 249.447 145.266 251.343 149.265Z" fill="white"/>
<path d="M273.341 172.954L270.288 174.004C269.428 174.299 268.967 175.244 269.263 176.104L269.415 176.546C269.711 177.406 270.656 177.867 271.515 177.571L274.568 176.522C275.428 176.226 275.889 175.281 275.593 174.421L275.441 173.979C275.145 173.119 274.2 172.658 273.341 172.954Z" fill="#23281F"/>
<path d="M260.129 146.756L261.765 146.489C262.613 146.349 263.189 145.549 263.05 144.701L262.907 143.827C262.769 142.979 261.968 142.404 261.119 142.542L259.484 142.809C258.635 142.949 258.06 143.749 258.199 144.597L258.341 145.471C258.481 146.32 259.281 146.895 260.129 146.756Z" fill="#E0E6EA"/>
<path d="M248.763 148.743L250.31 148.15C251.113 147.842 251.515 146.942 251.207 146.139L250.89 145.313C250.583 144.51 249.682 144.108 248.879 144.416L247.332 145.009C246.529 145.316 246.127 146.217 246.435 147.02L246.752 147.846C247.059 148.65 247.961 149.05 248.763 148.743Z" fill="#E0E6EA"/>
<path d="M177.782 468.866L184.678 306.961C184.686 306.958 184.693 306.955 184.701 306.951C182.241 375.389 178.417 468.836 177.783 468.866H177.782Z" fill="#C3CEE1"/>
<path d="M177.783 468.866C178.417 468.836 182.241 375.389 184.701 306.951C184.968 306.831 185.2 306.633 185.357 306.382L193.546 311.045L185.702 468.524L177.782 468.866" fill="#47A07E"/>
<path d="M193.546 311.045L185.357 306.382C185.541 306.089 185.626 305.725 185.553 305.332L185.321 304.077L193.62 309.575L193.546 311.045Z" fill="#1E241E"/>
<path d="M184.678 306.961L184.816 303.743L185.321 304.077L185.553 305.332C185.626 305.725 185.541 306.09 185.357 306.382C185.2 306.633 184.968 306.831 184.701 306.951C184.693 306.955 184.686 306.958 184.678 306.961Z" fill="#CF887F"/>
<path d="M241.371 468.866C243.272 461.271 235.447 313.792 234.97 304.833H234.972C238.947 373.491 243.141 468.826 241.371 468.866Z" fill="#C3CEE1"/>
<path d="M241.371 468.866C243.141 468.826 238.947 373.491 234.972 304.833H241.612L248.242 468.562L241.371 468.866Z" fill="#47A07E"/>
<path d="M241.612 304.833H234.97C234.955 304.552 234.947 304.409 234.947 304.409H241.595L241.612 304.833Z" fill="#47A07E"/>
<path d="M633 492H0V480H633V492Z" fill="#BBBAB8"/>
</g>
<defs>
<clipPath id="clip0">
<rect width="633" height="492" fill="white"/>
</clipPath>
</defs>
</svg>
